<svg width="48" height="48" viewBox="0 0 48 48" fill="none" xmlns="http://www.w3.org/2000/svg">
<path d="M41.8238 24.363C41.8238 34.0042 34.008 41.8198 24.367 41.8198C20.6896 41.8198 17.2778 40.6828 14.464 38.7412L8.49714 40.2328L10.0608 34.3694C8.0753 31.5358 6.91016 28.0856 6.91016 24.363C6.91016 14.722 14.7258 6.90625 24.367 6.90625C34.008 6.90625 41.8238 14.722 41.8238 24.363Z" fill="url(#paint0_linear_37_130)"/>
<path fill-rule="evenodd" clip-rule="evenodd" d="M24.3662 44.7326C35.6142 44.7326 44.7326 35.6142 44.7326 24.3662C44.7326 13.1184 35.6142 4 24.3662 4C13.1182 4 4 13.1184 4 24.3662C4 28.019 4.96156 31.447 6.64538 34.4112L4 44.7326L14.6412 42.265C17.531 43.8386 20.8442 44.7326 24.3662 44.7326ZM24.3662 41.5992C33.8838 41.5992 41.5992 33.8838 41.5992 24.3662C41.5992 14.8488 33.8838 7.13328 24.3662 7.13328C14.8488 7.13328 7.13326 14.8488 7.13326 24.3662C7.13326 28.041 8.28346 31.4472 10.2435 34.2442L8.6999 40.0326L14.5904 38.56C17.368 40.4768 20.736 41.5992 24.3662 41.5992Z" fill="white"/>
<path d="M19.277 14.904C18.7928 13.9314 18.05 14.0176 17.2996 14.0176C15.9584 14.0176 13.8672 15.624 13.8672 18.6138C13.8672 21.064 14.947 23.7462 18.5852 27.7584C22.0964 31.6306 26.7098 33.6336 30.5398 33.5654C34.3698 33.4972 35.1578 30.2014 35.1578 29.0884C35.1578 28.595 34.8518 28.3488 34.6408 28.282C33.3356 27.6556 30.9284 26.4886 30.3808 26.2692C29.833 26.05 29.547 26.3466 29.3692 26.5078C28.8726 26.9812 27.888 28.3762 27.5508 28.69C27.2136 29.0038 26.711 28.845 26.502 28.7264C25.7322 28.4174 23.6454 27.4892 21.982 25.8768C19.9248 23.8826 19.804 23.1964 19.4164 22.5856C19.1064 22.0972 19.334 21.7974 19.4474 21.6664C19.8908 21.1548 20.5028 20.3654 20.7772 19.973C21.0516 19.5806 20.8338 18.9848 20.703 18.6138C20.1408 17.018 19.6644 15.6822 19.277 14.904Z" fill="white"/>
<defs>
<linearGradient id="paint0_linear_37_130" x1="39.6416" y1="11.2705" x2="6.91016" y2="41.8198" gradientUnits="userSpaceOnUse">
<stop stop-color="#5BD066"/>
<stop offset="1" stop-color="#27B43E"/>
</linearGradient>
</defs>
</svg>