<svg width="13" height="18" viewBox="0 0 13 18" fill="none" xmlns="http://www.w3.org/2000/svg">
<g clip-path="url(#clip0_17_17)">
<path d="M8.77297 3.05121V7.66107C8.77297 11.6161 3.24611 11.6161 3.24611 7.66107V3.05121C3.24611 -1.01666 8.77297 -1.01666 8.77297 3.05121ZM6.69582 14.184V17.3144C6.68766 17.4909 6.6118 17.6575 6.48399 17.7796C6.35618 17.9016 6.18626 17.9697 6.00954 17.9697C5.83283 17.9697 5.66291 17.9016 5.5351 17.7796C5.40729 17.6575 5.33142 17.4909 5.32326 17.3144V14.1767C4.69183 14.1036 4.07615 13.93 3.49953 13.6625C2.85524 13.3629 2.26829 12.9529 1.76516 12.4511L1.75783 12.4379C1.20258 11.8825 0.760771 11.2242 0.457052 10.4999C0.154466 9.77202 -0.000869469 8.99136 2.03352e-05 8.20306C-0.00102993 8.06682 0.0386248 7.93338 0.113903 7.81982C0.189181 7.70626 0.296652 7.61777 0.422545 7.56568C0.548438 7.51359 0.687017 7.50028 0.820523 7.52745C0.954029 7.55463 1.07638 7.62105 1.1719 7.7182L1.18654 7.73285C1.30621 7.86015 1.37275 8.02835 1.37258 8.20306C1.37169 8.8094 1.49119 9.40987 1.72414 9.96966C2.2 11.1103 3.10711 12.0169 4.24807 12.4921C4.80815 12.7251 5.40878 12.8451 6.0154 12.8451C6.62202 12.8451 7.22265 12.7251 7.78274 12.4921C8.34642 12.257 8.85852 11.9136 9.29006 11.4814L9.30178 11.4711C9.72836 11.0413 10.0676 10.5329 10.3008 9.97406C10.5323 9.41249 10.6498 8.81048 10.6465 8.20306C10.6547 8.02654 10.7305 7.85994 10.8583 7.7379C10.9861 7.61586 11.1561 7.54777 11.3328 7.54777C11.5095 7.54777 11.6794 7.61586 11.8072 7.7379C11.935 7.85994 12.0109 8.02654 12.0191 8.20306C12.0197 8.98992 11.8643 9.76909 11.562 10.4955C11.2577 11.2265 10.8133 11.8908 10.2539 12.4511L10.2407 12.4628C9.74107 12.9593 9.1586 13.3648 8.51955 13.6611C7.94234 13.9284 7.32621 14.1019 6.69436 14.1752L6.69582 14.184Z" fill="#0057FF"/>
</g>
<defs>
<clipPath id="clip0_17_17">
<rect width="12.019" height="18" fill="white"/>
</clipPath>
</defs>
</svg>
