<svg width="297" height="240" viewBox="0 0 297 240" fill="none" xmlns="http://www.w3.org/2000/svg">
<path d="M0 0H297V240H0V0Z" fill="#D9D9D9"/>
<path d="M227.173 126V117.6H228.309V124.272L233.925 117.6H234.933V126H233.797V119.312L228.197 126H227.173Z" fill="black"/>
<path d="M216.158 126V117.6H217.294V124.272L222.91 117.6H223.918V126H222.782V119.312L217.182 126H216.158Z" fill="black"/>
<path d="M205.22 126V117.6H206.356V125.008H211.492V117.6H212.628V126H205.22ZM212.916 128.032V125.904L213.204 126H211.492V125.008H213.988V128.032H212.916Z" fill="black"/>
<path d="M201.108 126V124.144L201.06 123.84V120.736C201.06 120.021 200.857 119.472 200.452 119.088C200.057 118.704 199.465 118.512 198.676 118.512C198.132 118.512 197.615 118.603 197.124 118.784C196.633 118.965 196.217 119.205 195.876 119.504L195.364 118.656C195.791 118.293 196.303 118.016 196.9 117.824C197.497 117.621 198.127 117.52 198.788 117.52C199.876 117.52 200.713 117.792 201.3 118.336C201.897 118.869 202.196 119.685 202.196 120.784V126H201.108ZM198.212 126.08C197.583 126.08 197.033 125.979 196.564 125.776C196.105 125.563 195.753 125.275 195.508 124.912C195.263 124.539 195.14 124.112 195.14 123.632C195.14 123.195 195.241 122.8 195.444 122.448C195.657 122.085 195.999 121.797 196.468 121.584C196.948 121.36 197.588 121.248 198.388 121.248H201.284V122.096H198.42C197.609 122.096 197.044 122.24 196.724 122.528C196.415 122.816 196.26 123.173 196.26 123.6C196.26 124.08 196.447 124.464 196.82 124.752C197.193 125.04 197.716 125.184 198.388 125.184C199.028 125.184 199.577 125.04 200.036 124.752C200.505 124.453 200.847 124.027 201.06 123.472L201.316 124.256C201.103 124.811 200.729 125.253 200.196 125.584C199.673 125.915 199.012 126.08 198.212 126.08Z" fill="black"/>
<path d="M189.306 126.08C188.581 126.08 187.925 125.915 187.338 125.584C186.752 125.243 186.282 124.757 185.93 124.128C185.589 123.488 185.418 122.709 185.418 121.792C185.418 120.875 185.589 120.101 185.93 119.472C186.272 118.832 186.736 118.347 187.322 118.016C187.909 117.685 188.57 117.52 189.306 117.52C190.106 117.52 190.821 117.701 191.45 118.064C192.09 118.416 192.592 118.917 192.954 119.568C193.317 120.208 193.498 120.949 193.498 121.792C193.498 122.645 193.317 123.392 192.954 124.032C192.592 124.672 192.09 125.173 191.45 125.536C190.821 125.899 190.106 126.08 189.306 126.08ZM184.97 129.104V117.6H186.058V120.128L185.946 121.808L186.106 123.504V129.104H184.97ZM189.226 125.072C189.824 125.072 190.357 124.939 190.826 124.672C191.296 124.395 191.669 124.011 191.946 123.52C192.224 123.019 192.362 122.443 192.362 121.792C192.362 121.141 192.224 120.571 191.946 120.08C191.669 119.589 191.296 119.205 190.826 118.928C190.357 118.651 189.824 118.512 189.226 118.512C188.629 118.512 188.09 118.651 187.61 118.928C187.141 119.205 186.768 119.589 186.49 120.08C186.224 120.571 186.09 121.141 186.09 121.792C186.09 122.443 186.224 123.019 186.49 123.52C186.768 124.011 187.141 124.395 187.61 124.672C188.09 124.939 188.629 125.072 189.226 125.072Z" fill="black"/>
<path d="M178.68 126.08C177.805 126.08 177.037 125.899 176.376 125.536C175.714 125.163 175.197 124.656 174.824 124.016C174.45 123.365 174.264 122.624 174.264 121.792C174.264 120.96 174.44 120.224 174.792 119.584C175.154 118.944 175.645 118.443 176.264 118.08C176.893 117.707 177.597 117.52 178.376 117.52C179.165 117.52 179.864 117.701 180.472 118.064C181.09 118.416 181.576 118.917 181.928 119.568C182.28 120.208 182.456 120.949 182.456 121.792C182.456 121.845 182.45 121.904 182.44 121.968C182.44 122.021 182.44 122.08 182.44 122.144H175.128V121.296H181.832L181.384 121.632C181.384 121.024 181.25 120.485 180.984 120.016C180.728 119.536 180.376 119.163 179.928 118.896C179.48 118.629 178.962 118.496 178.376 118.496C177.8 118.496 177.282 118.629 176.824 118.896C176.365 119.163 176.008 119.536 175.752 120.016C175.496 120.496 175.368 121.045 175.368 121.664V121.84C175.368 122.48 175.506 123.045 175.784 123.536C176.072 124.016 176.466 124.395 176.968 124.672C177.48 124.939 178.061 125.072 178.712 125.072C179.224 125.072 179.698 124.981 180.136 124.8C180.584 124.619 180.968 124.341 181.288 123.968L181.928 124.704C181.554 125.152 181.085 125.493 180.52 125.728C179.965 125.963 179.352 126.08 178.68 126.08Z" fill="black"/>
<path d="M164.283 126V117.6H165.419V121.312H170.715V117.6H171.851V126H170.715V122.288H165.419V126H164.283Z" fill="black"/>
<path d="M157.992 126.08C157.118 126.08 156.35 125.899 155.688 125.536C155.027 125.163 154.51 124.656 154.136 124.016C153.763 123.365 153.576 122.624 153.576 121.792C153.576 120.96 153.752 120.224 154.104 119.584C154.467 118.944 154.958 118.443 155.576 118.08C156.206 117.707 156.91 117.52 157.688 117.52C158.478 117.52 159.176 117.701 159.784 118.064C160.403 118.416 160.888 118.917 161.24 119.568C161.592 120.208 161.768 120.949 161.768 121.792C161.768 121.845 161.763 121.904 161.752 121.968C161.752 122.021 161.752 122.08 161.752 122.144H154.44V121.296H161.144L160.696 121.632C160.696 121.024 160.563 120.485 160.296 120.016C160.04 119.536 159.688 119.163 159.24 118.896C158.792 118.629 158.275 118.496 157.688 118.496C157.112 118.496 156.595 118.629 156.136 118.896C155.678 119.163 155.32 119.536 155.064 120.016C154.808 120.496 154.68 121.045 154.68 121.664V121.84C154.68 122.48 154.819 123.045 155.096 123.536C155.384 124.016 155.779 124.395 156.28 124.672C156.792 124.939 157.374 125.072 158.024 125.072C158.536 125.072 159.011 124.981 159.448 124.8C159.896 124.619 160.28 124.341 160.6 123.968L161.24 124.704C160.867 125.152 160.398 125.493 159.832 125.728C159.278 125.963 158.664 126.08 157.992 126.08Z" fill="black"/>
<path d="M147.189 126V117.6H153.141V118.592H148.037L148.325 118.304V126H147.189Z" fill="black"/>
<path d="M137.039 126V118.288L137.327 118.592H133.855V117.6H141.359V118.592H137.887L138.175 118.288V126H137.039Z" fill="black"/>
<path d="M131.327 126V124.144L131.279 123.84V120.736C131.279 120.021 131.076 119.472 130.671 119.088C130.276 118.704 129.684 118.512 128.895 118.512C128.351 118.512 127.834 118.603 127.343 118.784C126.852 118.965 126.436 119.205 126.095 119.504L125.583 118.656C126.01 118.293 126.522 118.016 127.119 117.824C127.716 117.621 128.346 117.52 129.007 117.52C130.095 117.52 130.932 117.792 131.519 118.336C132.116 118.869 132.415 119.685 132.415 120.784V126H131.327ZM128.431 126.08C127.802 126.08 127.252 125.979 126.783 125.776C126.324 125.563 125.972 125.275 125.727 124.912C125.482 124.539 125.359 124.112 125.359 123.632C125.359 123.195 125.46 122.8 125.663 122.448C125.876 122.085 126.218 121.797 126.687 121.584C127.167 121.36 127.807 121.248 128.607 121.248H131.503V122.096H128.639C127.828 122.096 127.263 122.24 126.943 122.528C126.634 122.816 126.479 123.173 126.479 123.6C126.479 124.08 126.666 124.464 127.039 124.752C127.412 125.04 127.935 125.184 128.607 125.184C129.247 125.184 129.796 125.04 130.255 124.752C130.724 124.453 131.066 124.027 131.279 123.472L131.535 124.256C131.322 124.811 130.948 125.253 130.415 125.584C129.892 125.915 129.231 126.08 128.431 126.08Z" fill="black"/>
<path d="M120.148 126V118.288L120.436 118.592H116.964V117.6H124.468V118.592H120.996L121.284 118.288V126H120.148Z" fill="black"/>
<path d="M113.992 120.56C115.048 120.571 115.848 120.805 116.392 121.264C116.947 121.723 117.224 122.384 117.224 123.248C117.224 124.144 116.926 124.832 116.328 125.312C115.742 125.792 114.888 126.027 113.768 126.016L110.376 126V117.6H111.512V120.528L113.992 120.56ZM113.704 125.152C114.483 125.163 115.07 125.008 115.464 124.688C115.87 124.357 116.072 123.877 116.072 123.248C116.072 122.619 115.875 122.16 115.48 121.872C115.086 121.573 114.494 121.419 113.704 121.408L111.512 121.376V125.12L113.704 125.152Z" fill="black"/>
<path d="M98.731 125.984L98.811 125.008C98.8856 125.019 98.955 125.035 99.019 125.056C99.0936 125.067 99.1576 125.072 99.211 125.072C99.5523 125.072 99.8243 124.944 100.027 124.688C100.24 124.432 100.4 124.091 100.507 123.664C100.614 123.237 100.688 122.757 100.731 122.224C100.774 121.68 100.811 121.136 100.843 120.592L100.987 117.6H107.147V126H106.011V118.256L106.299 118.592H101.723L101.995 118.24L101.867 120.672C101.835 121.397 101.776 122.091 101.691 122.752C101.616 123.413 101.494 123.995 101.323 124.496C101.163 124.997 100.939 125.392 100.651 125.68C100.363 125.957 99.995 126.096 99.547 126.096C99.419 126.096 99.2856 126.085 99.147 126.064C99.019 126.043 98.8803 126.016 98.731 125.984Z" fill="black"/>
<path d="M91.8642 129.184C91.4695 129.184 91.0908 129.12 90.7282 128.992C90.3762 128.864 90.0722 128.672 89.8162 128.416L90.3442 127.568C90.5575 127.771 90.7868 127.925 91.0322 128.032C91.2882 128.149 91.5708 128.208 91.8802 128.208C92.2535 128.208 92.5735 128.101 92.8402 127.888C93.1175 127.685 93.3788 127.323 93.6242 126.8L94.1682 125.568L94.2962 125.392L97.7522 117.6H98.8722L94.6642 127.008C94.4295 127.552 94.1682 127.984 93.8802 128.304C93.6028 128.624 93.2988 128.848 92.9682 128.976C92.6375 129.115 92.2695 129.184 91.8642 129.184ZM94.1042 126.24L90.2322 117.6H91.4162L94.8402 125.312L94.1042 126.24Z" fill="black"/>
<path d="M85.4294 126.096C84.8214 126.096 84.2187 126.011 83.6214 125.84C83.024 125.669 82.496 125.408 82.0374 125.056L82.4054 124.208C82.8107 124.507 83.28 124.736 83.8134 124.896C84.3467 125.045 84.8747 125.12 85.3974 125.12C85.92 125.109 86.3734 125.035 86.7574 124.896C87.1414 124.757 87.44 124.565 87.6534 124.32C87.8667 124.075 87.9734 123.797 87.9734 123.488C87.9734 123.04 87.7707 122.693 87.3654 122.448C86.96 122.192 86.4054 122.064 85.7014 122.064H84.2614V121.232H85.6214C86.0374 121.232 86.4054 121.179 86.7254 121.072C87.0454 120.965 87.2907 120.811 87.4614 120.608C87.6427 120.405 87.7334 120.165 87.7334 119.888C87.7334 119.589 87.6267 119.333 87.4134 119.12C87.2107 118.907 86.928 118.747 86.5654 118.64C86.2027 118.533 85.792 118.48 85.3334 118.48C84.9174 118.491 84.4854 118.555 84.0374 118.672C83.5894 118.779 83.1467 118.944 82.7094 119.168L82.3894 118.288C82.88 118.032 83.3654 117.84 83.8454 117.712C84.336 117.573 84.8267 117.504 85.3174 117.504C85.9894 117.483 86.592 117.563 87.1254 117.744C87.6694 117.925 88.1014 118.187 88.4214 118.528C88.7414 118.859 88.9014 119.259 88.9014 119.728C88.9014 120.144 88.7734 120.507 88.5174 120.816C88.2614 121.125 87.92 121.365 87.4934 121.536C87.0667 121.707 86.5814 121.792 86.0374 121.792L86.0854 121.488C87.0454 121.488 87.792 121.675 88.3254 122.048C88.8694 122.421 89.1414 122.928 89.1414 123.568C89.1414 124.069 88.976 124.512 88.6454 124.896C88.3147 125.269 87.8667 125.563 87.3014 125.776C86.7467 125.989 86.1227 126.096 85.4294 126.096Z" fill="black"/>
<path d="M77.1172 126.08C76.2425 126.08 75.4745 125.899 74.8132 125.536C74.1518 125.163 73.6345 124.656 73.2612 124.016C72.8878 123.365 72.7012 122.624 72.7012 121.792C72.7012 120.96 72.8772 120.224 73.2292 119.584C73.5918 118.944 74.0825 118.443 74.7012 118.08C75.3305 117.707 76.0345 117.52 76.8132 117.52C77.6025 117.52 78.3012 117.701 78.9092 118.064C79.5278 118.416 80.0132 118.917 80.3652 119.568C80.7172 120.208 80.8932 120.949 80.8932 121.792C80.8932 121.845 80.8878 121.904 80.8772 121.968C80.8772 122.021 80.8772 122.08 80.8772 122.144H73.5652V121.296H80.2692L79.8212 121.632C79.8212 121.024 79.6878 120.485 79.4212 120.016C79.1652 119.536 78.8132 119.163 78.3652 118.896C77.9172 118.629 77.3998 118.496 76.8132 118.496C76.2372 118.496 75.7198 118.629 75.2612 118.896C74.8025 119.163 74.4452 119.536 74.1892 120.016C73.9332 120.496 73.8052 121.045 73.8052 121.664V121.84C73.8052 122.48 73.9438 123.045 74.2212 123.536C74.5092 124.016 74.9038 124.395 75.4052 124.672C75.9172 124.939 76.4985 125.072 77.1492 125.072C77.6612 125.072 78.1358 124.981 78.5732 124.8C79.0212 124.619 79.4052 124.341 79.7252 123.968L80.3652 124.704C79.9918 125.152 79.5225 125.493 78.9572 125.728C78.4025 125.963 77.7892 126.08 77.1172 126.08Z" fill="black"/>
<path d="M62.6484 126V114.8H66.8404C67.7898 114.8 68.6058 114.955 69.2884 115.264C69.9711 115.563 70.4938 116 70.8564 116.576C71.2298 117.141 71.4164 117.829 71.4164 118.64C71.4164 119.429 71.2298 120.112 70.8564 120.688C70.4938 121.253 69.9711 121.691 69.2884 122C68.6058 122.309 67.7898 122.464 66.8404 122.464H63.3044L63.8324 121.904V126H62.6484ZM63.8324 122L63.3044 121.424H66.8084C67.9284 121.424 68.7764 121.184 69.3524 120.704C69.9391 120.213 70.2324 119.525 70.2324 118.64C70.2324 117.744 69.9391 117.051 69.3524 116.56C68.7764 116.069 67.9284 115.824 66.8084 115.824H63.3044L63.8324 115.264V122Z" fill="black"/>
</svg>
