<svg width="18" height="18" viewBox="0 0 18 18" fill="none" xmlns="http://www.w3.org/2000/svg">
<g clip-path="url(#clip0_17_14)">
<path fill-rule="evenodd" clip-rule="evenodd" d="M10.5601 2.74219H16.7666C17.0669 2.74219 17.3364 2.86523 17.5312 3.06152C17.7275 3.25781 17.8506 3.53027 17.8506 3.82617V16.916C17.8506 17.2163 17.7275 17.4858 17.5312 17.6807C17.335 17.877 17.0625 18 16.7666 18H3.58594C3.28564 18 3.01611 17.877 2.82129 17.6807C2.625 17.4844 2.50195 17.2119 2.50195 16.916V10.4678C2.86377 10.6143 3.2417 10.7285 3.63281 10.8032V13.7739H3.63721C5.52539 11.9678 6.77637 11.0757 8.6543 9.55078C8.66162 9.55811 8.66895 9.56543 8.67627 9.57275C8.68066 9.57715 8.68066 9.58154 8.68506 9.58154L12.6138 14.2295L13.2144 10.5322C13.2554 10.2949 13.478 10.1323 13.7153 10.1733C13.8062 10.1865 13.8882 10.2319 13.9526 10.292L16.7095 13.188V4.08838C16.7095 4.02979 16.686 3.97852 16.645 3.94336C16.6084 3.90674 16.5542 3.87891 16.5 3.87891H10.8472C10.7871 3.48633 10.6904 3.10693 10.5601 2.74219ZM4.80322 0C7.45605 0 9.60645 2.15039 9.60645 4.80322C9.60645 7.45605 7.45605 9.60645 4.80322 9.60645C2.15039 9.60645 0 7.45605 0 4.80322C0 2.15039 2.15039 0 4.80322 0ZM2.25146 4.88818H3.86865V7.19678H5.69238V4.88818H7.35645L4.80469 2.4082L2.25146 4.88818ZM13.8091 5.22363C14.2412 5.22363 14.6382 5.40088 14.9194 5.68359C15.2065 5.9707 15.3794 6.36182 15.3794 6.79541C15.3794 7.22754 15.2021 7.62451 14.9194 7.90576C14.6323 8.19287 14.2412 8.36572 13.8091 8.36572C13.377 8.36572 12.98 8.18848 12.6973 7.90576C12.4102 7.61865 12.2373 7.22754 12.2373 6.79541C12.2373 6.36328 12.4146 5.96777 12.6973 5.68359C12.9858 5.39648 13.377 5.22363 13.8091 5.22363Z" fill="#0057FF"/>
</g>
<defs>
<clipPath id="clip0_17_14">
<rect width="17.8506" height="18" fill="white"/>
</clipPath>
</defs>
</svg>
