<svg width="22" height="18" viewBox="0 0 22 18" fill="none" xmlns="http://www.w3.org/2000/svg">
<g clip-path="url(#clip0_17_19)">
<path fill-rule="evenodd" clip-rule="evenodd" d="M13.4983 13.4742C10.3404 13.4742 12.4198 13.7222 12.8488 10.2904C13.4914 5.15812 18.3721 5.15812 19.0923 10.2904C19.554 13.593 21.5335 13.4742 18.4428 13.4742H17.2109C17.2058 14.3149 17.0748 14.7439 17.9466 15.2159C18.8166 15.6863 21.17 15.9292 21.17 17.1231V17.888C21.17 17.95 21.12 18 21.058 18C14.0392 18 7.01876 18 0 18V15.7862C0.93549 15.3693 3.90563 14.5854 4.13649 13.4156C4.19851 13.102 3.47492 12.0528 3.28369 11.4964C2.98737 11.0226 2.80475 10.1198 3.15792 9.60988C3.36811 9.30494 3.27852 8.59341 3.27852 8.20578C3.27852 5.13917 8.64855 5.14089 8.64855 8.20578C8.64855 8.51417 8.58652 9.32906 8.73124 9.55302C9.09648 10.1164 8.9776 10.9623 8.64338 11.4964C8.4866 12.0253 7.80609 13.1261 7.84054 13.4156C8.08691 15.5019 10.6608 14.4682 11.7531 16.0308C12.4766 15.7224 13.438 15.5433 14.0823 15.1574C14.849 14.6991 14.718 14.2374 14.7129 13.4742H13.4983ZM9.02757 0H7.06528C6.76378 0 6.50708 0.106815 6.29173 0.318721C6.0781 0.530628 5.97301 0.789051 5.97301 1.09227V3.00632C5.97301 3.30953 6.07982 3.56796 6.29173 3.77986C6.50364 3.99177 6.76206 4.09858 7.06528 4.09858H7.90773C7.84571 4.33978 7.76818 4.56891 7.67171 4.78254C7.57695 4.99962 7.41673 5.20636 7.19449 5.40448C7.62002 5.29422 7.99904 5.12711 8.33327 4.90831C8.66577 4.69123 8.95521 4.41903 9.19296 4.09858H9.91482C10.2163 4.09858 10.473 3.99005 10.6884 3.77986C10.902 3.56796 11.0071 3.30953 11.0071 3.00632V1.09054C11.0071 0.789051 10.9003 0.532351 10.6884 0.316998C10.4782 0.103369 10.2198 0 9.91654 0H9.02757ZM14.7663 2.19832V4.11237C14.7663 4.28637 14.7353 4.45004 14.6715 4.60165C14.6095 4.75325 14.5182 4.89108 14.3924 5.0134C14.339 5.06681 14.2822 5.11505 14.2236 5.15467C14.1633 5.19774 14.1013 5.23392 14.0375 5.26493C14.0358 5.26665 14.0306 5.26665 14.0272 5.2701C13.9445 5.308 13.8618 5.33557 13.7739 5.35452C13.6826 5.37347 13.5879 5.38381 13.4914 5.38381H12.8901C12.9022 5.42171 12.9142 5.46133 12.928 5.49923C12.9642 5.60605 13.0073 5.71114 13.0538 5.81451V5.81623C13.0951 5.91271 13.152 6.00402 13.2226 6.09533C13.295 6.19008 13.3811 6.28139 13.4845 6.37443C13.5586 6.43989 13.5672 6.55188 13.4983 6.62768C13.4518 6.68109 13.3828 6.70004 13.3208 6.68281C13.0986 6.62423 12.8867 6.5536 12.6903 6.46573C12.4922 6.37959 12.3044 6.27795 12.1286 6.16252C11.9546 6.04881 11.791 5.9196 11.6394 5.77661C11.5119 5.65601 11.3913 5.52335 11.2776 5.38381H10.647C10.5281 5.38381 10.4127 5.37002 10.3042 5.34073C10.1956 5.31145 10.0923 5.26665 9.99407 5.20636C9.90965 5.15639 9.88381 5.04441 9.93377 4.95999C9.98373 4.87557 10.0957 4.84973 10.1801 4.89969C10.2473 4.94104 10.3197 4.97205 10.3989 4.99445C10.4765 5.01685 10.5609 5.02546 10.647 5.02546H11.3672C11.4223 5.02546 11.4757 5.04958 11.5119 5.09782C11.6256 5.24943 11.7496 5.38897 11.8874 5.51646C12.0218 5.64395 12.17 5.75938 12.3285 5.86275C12.4801 5.96095 12.642 6.05054 12.8126 6.12806C12.7781 6.07293 12.7523 6.0178 12.7265 5.96267C12.6782 5.85241 12.6317 5.73871 12.5921 5.61811C12.5542 5.5044 12.518 5.38725 12.4853 5.26838C12.4784 5.24943 12.4749 5.22703 12.4749 5.20636C12.4749 5.10815 12.5542 5.02546 12.6558 5.02546H13.4931C13.5655 5.02546 13.6327 5.01857 13.6981 5.00306C13.7601 4.98928 13.8187 4.96861 13.8739 4.94449C13.8756 4.94276 13.879 4.94276 13.8807 4.93932C13.9273 4.91692 13.9721 4.89108 14.0134 4.86179C14.0565 4.83078 14.0978 4.79632 14.1357 4.75498C14.2253 4.66539 14.2925 4.56719 14.3356 4.46037C14.3786 4.35356 14.401 4.23641 14.401 4.10892V2.20176C14.401 2.07427 14.3786 1.9554 14.3356 1.85031C14.2925 1.74521 14.2253 1.64529 14.1357 1.5557C14.0461 1.46612 13.9479 1.39893 13.8411 1.35586C13.7343 1.31279 13.6172 1.29039 13.4897 1.29039H12.2182C12.12 1.29039 12.0373 1.21114 12.0373 1.10949C12.0373 1.01129 12.1166 0.928599 12.2182 0.928599H13.4897C13.6637 0.928599 13.8239 0.959609 13.9755 1.02335C14.1271 1.08538 14.2615 1.17668 14.3873 1.30073C14.5096 1.42305 14.6043 1.56087 14.6646 1.71248C14.7266 1.86409 14.7594 2.02603 14.7594 2.19832H14.7663Z" fill="#0057FF"/>
</g>
<defs>
<clipPath id="clip0_17_19">
<rect width="21.17" height="18" fill="white"/>
</clipPath>
</defs>
</svg>
