<svg width="16" height="18" viewBox="0 0 16 18" fill="none" xmlns="http://www.w3.org/2000/svg">
<g clip-path="url(#clip0_17_11)">
<path d="M0.779297 2.14453H3.78369V0.779297H3.78516C3.78516 0.563965 3.87305 0.369141 4.01367 0.228516C4.15283 0.0893555 4.34766 0.00146484 4.56299 0.00146484V0H10.3652H10.5439L10.6729 0.128906L15.2563 4.72998L15.3838 5.03613V15.1729H15.3823C15.3823 15.3882 15.2959 15.583 15.1553 15.7236H15.1538C15.0147 15.8643 14.8198 15.9507 14.6045 15.9507V15.9521H11.6001V17.2192H11.5986C11.5986 17.4346 11.5122 17.6294 11.3716 17.77H11.3701C11.2295 17.9092 11.0361 17.9971 10.8208 17.9971V17.9985H0.779297V17.9971C0.563965 17.9971 0.369141 17.9092 0.228516 17.7686C0.0893555 17.6279 0.00146484 17.4346 0.00146484 17.2192H0V2.92529H0.00146484C0.00146484 2.70996 0.0893555 2.51514 0.229981 2.37451C0.369141 2.23535 0.563965 2.14746 0.779297 2.14746V2.14453ZM4.65234 2.14453H6.58154H6.76025L6.88916 2.27344L11.4727 6.87451L11.6001 7.18066V15.0835H14.5137V5.30859H10.9468C10.686 5.30859 10.4502 5.2002 10.2788 5.02441C10.1074 4.8501 10.0005 4.6084 10.0005 4.34326V0.870117H4.65234V2.14453ZM10.0181 0.435059H10.3652L14.9487 5.03613V5.29102H10.9468C10.4355 5.29102 10.0166 4.86328 10.0166 4.3418V0.435059H10.0181ZM10.7314 7.45312H7.16455C6.90381 7.45312 6.66797 7.34473 6.49658 7.16895C6.3252 6.99463 6.21826 6.75293 6.21826 6.48779V3.01465H3.78369H0.870117V17.1299H10.7314V15.9521V15.5171V7.45312Z" fill="#0057FF"/>
</g>
<defs>
<clipPath id="clip0_17_11">
<rect width="15.3838" height="18" fill="white"/>
</clipPath>
</defs>
</svg>
