<svg width="58" height="24" viewBox="0 0 58 24" fill="none" xmlns="http://www.w3.org/2000/svg"><path d="M55.5 24V0H58V24H55.5Z" fill="white"/><path fill-rule="evenodd" clip-rule="evenodd" d="M38.9958 0L28 24H30.6459L40.2328 2.62356L49.8198 24H52.5L41.5042 0H38.9958ZM39.7174 1.47429L40.2328 2.62356L40.7482 1.47429H39.7174Z" fill="white"/><path d="M40.7482 1.47429H39.7174L40.2328 2.62356L40.7482 1.47429Z" fill="white"/><path d="M24 12C24 18.6274 18.6274 24 12 24C5.37258 24 0 18.6274 0 12C0 5.37258 5.37258 0 12 0C18.6274 0 24 5.37258 24 12Z" fill="#0057FF"/></svg>