<svg width="48" height="48" viewBox="0 0 48 48" fill="none" xmlns="http://www.w3.org/2000/svg">
<path d="M18.7459 33.2632H22.5863L16.5805 16H12.3335L6.33984 33.2632H10.0485L11.3645 29.076H17.4299L18.7459 33.2632ZM14.3553 19.3018H14.4391L16.6523 26.3722H12.1421L14.3553 19.3018Z" fill="black"/>
<path d="M24.6021 16V33.2632H31.1939C36.3741 33.2632 39.4247 30.045 39.4247 24.5658C39.4247 19.0864 36.3741 16 31.1939 16H24.6021ZM28.2149 18.9788H30.7633C33.9455 18.9788 35.7401 20.9648 35.7401 24.5778C35.7401 28.3104 33.9933 30.2724 30.7633 30.2724H28.2149V18.9788Z" fill="black"/>
<path fill-rule="evenodd" clip-rule="evenodd" d="M4.70338 22.8905C4.70338 22.1744 5.28389 21.5939 6 21.5939H41.0089C41.725 21.5939 42.3055 22.1744 42.3055 22.8905C42.3055 23.6066 41.725 24.1871 41.0089 24.1871H6C5.28389 24.1871 4.70338 23.6066 4.70338 22.8905Z" fill="black"/>
</svg>
