<svg width="48" height="48" viewBox="0 0 48 48" fill="none" xmlns="http://www.w3.org/2000/svg">
<mask id="mask0_37_146" style="mask-type:luminance" maskUnits="userSpaceOnUse" x="2" y="4" width="41" height="38">
<path d="M42.514 4H2V41.82H42.514V4Z" fill="white"/>
</mask>
<g mask="url(#mask0_37_146)">
<path d="M23.6038 26.6723C25.7113 26.6723 27.4196 24.964 27.4196 22.8566C27.4196 20.7492 25.7113 19.0409 23.6038 19.0409C21.4964 19.0409 19.7881 20.7492 19.7881 22.8566C19.7881 24.964 21.4964 26.6723 23.6038 26.6723Z" fill="#242429"/>
<path fill-rule="evenodd" clip-rule="evenodd" d="M23.6053 7.90784C22.4312 7.90784 20.8434 8.98105 19.4472 11.9378L19.4472 11.9378C18.1129 14.7632 17.2403 18.7886 17.2403 23.3289C17.2403 27.8692 18.1129 31.8947 19.4472 34.7201L18.6662 35.0888L19.4472 34.7201C20.8434 37.6768 22.4312 38.7501 23.6053 38.7501C24.7794 38.7501 26.3672 37.6768 27.7634 34.7201L28.5491 35.0911L27.7634 34.7201C29.0976 31.8947 29.9703 27.8692 29.9703 23.3289C29.9703 18.7886 29.0976 14.7632 27.7634 11.9378L27.7634 11.9378C26.3672 8.98104 24.7794 7.90784 23.6053 7.90784ZM17.8757 11.1958C19.3435 8.08758 21.3697 6.17002 23.6053 6.17002C25.8409 6.17002 27.8671 8.08759 29.3348 11.1958L28.5491 11.5668L29.3348 11.1958C30.8012 14.3009 31.7081 18.5906 31.7081 23.3289C31.7081 28.0673 30.8011 32.357 29.3348 35.4621C27.8671 38.5703 25.8409 40.4879 23.6053 40.4879C21.3697 40.4879 19.3435 38.5703 17.8757 35.4621C16.4094 32.357 15.5024 28.0673 15.5024 23.3289C15.5024 18.5906 16.4094 14.3009 17.8757 11.1958ZM18.6614 11.5668L17.8757 11.1958L18.6614 11.5668Z" fill="#242429"/>
<path fill-rule="evenodd" clip-rule="evenodd" d="M15.8179 14.0214C12.5591 13.7521 10.8358 14.5906 10.2487 15.6074C9.66169 16.6242 9.79728 18.536 11.6597 21.2234C13.4395 23.7916 16.4893 26.5601 20.4213 28.8302C24.3533 31.1004 28.2758 32.3574 31.3898 32.6146C34.6485 32.8839 36.3719 32.0454 36.959 31.0285C37.546 30.0117 37.4104 28.1001 35.548 25.4125C33.7682 22.8443 30.7184 20.0759 26.7864 17.8057C22.8543 15.5356 18.9319 14.2786 15.8179 14.0214L15.8179 14.0214ZM8.74373 14.7385C9.86152 12.8024 12.5354 12.0064 15.961 12.2894C19.3833 12.5721 23.5517 13.9315 27.6553 16.3007L27.2208 17.0532L27.6553 16.3007C31.7588 18.6699 35.0203 21.6002 36.9763 24.4226L36.2621 24.9176L36.9763 24.4226C38.9341 27.2478 39.5818 29.9613 38.464 31.8974L38.464 31.8974C37.3461 33.8336 34.6724 34.6296 31.2467 34.3466C27.8244 34.0638 23.6559 32.7044 19.5524 30.3352C15.4489 27.966 12.1874 25.0358 10.2314 22.2133C8.27357 19.3882 7.62595 16.6746 8.74373 14.7385Z" fill="#242429"/>
<path fill-rule="evenodd" clip-rule="evenodd" d="M36.9581 15.6321C36.371 14.6153 34.6476 13.7768 31.389 14.046L31.3889 14.046C28.275 14.3032 24.3525 15.5602 20.4205 17.8304C16.4885 20.1005 13.4386 22.869 11.6588 25.4372C9.79637 28.1247 9.66079 30.0364 10.2479 31.0533L10.2479 31.0533C10.8349 32.0701 12.5583 32.9085 15.817 32.6393C18.931 32.3821 22.8535 31.125 26.7855 28.855L27.2199 29.6075L26.7855 28.855C30.7175 26.5848 33.7673 23.8163 35.547 21.2481L35.5471 21.2481C37.4096 18.5606 37.5451 16.6489 36.9581 15.6321ZM31.2459 12.3141C34.6714 12.0311 37.3453 12.8271 38.4631 14.7632C39.5808 16.6993 38.9333 19.4129 36.9754 22.238C35.0195 25.0605 31.7579 27.9908 27.6544 30.36L27.2534 29.6654L27.6544 30.36C23.5509 32.7291 19.3824 34.0885 15.9601 34.3712C12.5345 34.6542 9.86069 33.8583 8.74291 31.9222C7.62504 29.986 8.27266 27.2725 10.2305 24.4473L10.2305 24.4473C12.1865 21.6248 15.4481 18.6946 19.5516 16.3254C23.6551 13.9562 27.8236 12.5968 31.2459 12.3141Z" fill="#242429"/>
<path d="M29.3228 14.7424C31.1655 14.7424 32.6593 13.2485 32.6593 11.4059C32.6593 9.56319 31.1655 8.06939 29.3228 8.06939C27.4801 8.06939 25.9863 9.56319 25.9863 11.4059C25.9863 13.2485 27.4801 14.7424 29.3228 14.7424Z" fill="#242429"/>
<path fill-rule="evenodd" clip-rule="evenodd" d="M25.0331 11.4059C25.0331 9.03671 26.9537 7.11611 29.3228 7.11611C31.692 7.11611 33.6126 9.03671 33.6126 11.4059C33.6126 13.775 31.692 15.6956 29.3228 15.6956C26.9537 15.6956 25.0331 13.775 25.0331 11.4059ZM29.3228 9.02266C28.0066 9.02266 26.9396 10.0897 26.9396 11.4059C26.9396 12.7221 28.0066 13.7891 29.3228 13.7891C30.639 13.7891 31.706 12.7221 31.706 11.4059C31.706 10.0897 30.639 9.02266 29.3228 9.02266Z" fill="#9A9A9A"/>
<path d="M8.35131 31.9075C10.194 31.9075 11.6878 30.4137 11.6878 28.571C11.6878 26.7284 10.194 25.2346 8.35131 25.2346C6.50863 25.2346 5.01485 26.7284 5.01485 28.571C5.01485 30.4137 6.50863 31.9075 8.35131 31.9075Z" fill="#242429"/>
<path fill-rule="evenodd" clip-rule="evenodd" d="M4.06157 28.5711C4.06157 26.2019 5.98215 24.2813 8.35131 24.2813C10.7205 24.2813 12.6411 26.2019 12.6411 28.5711C12.6411 30.9402 10.7204 32.8607 8.35131 32.8607C5.98218 32.8607 4.06157 30.9402 4.06157 28.5711ZM8.35131 26.1878C7.03512 26.1878 5.96812 27.2548 5.96812 28.5711C5.96812 29.8872 7.03509 30.9542 8.35131 30.9542C9.66754 30.9542 10.7345 29.8872 10.7345 28.5711C10.7345 27.2548 9.66751 26.1878 8.35131 26.1878Z" fill="#9A9A9A"/>
<path d="M35.9959 37.6322C37.8385 37.6322 39.3324 36.1384 39.3324 34.2957C39.3324 32.453 37.8385 30.9592 35.9959 30.9592C34.1532 30.9592 32.6595 32.453 32.6595 34.2957C32.6595 36.1384 34.1532 37.6322 35.9959 37.6322Z" fill="#242429"/>
<path fill-rule="evenodd" clip-rule="evenodd" d="M31.7062 34.2957C31.7062 31.9266 33.6267 30.0059 35.9959 30.0059C38.365 30.0059 40.2856 31.9265 40.2856 34.2957C40.2856 36.6648 38.365 38.5854 35.9959 38.5854C33.6267 38.5854 31.7062 36.6648 31.7062 34.2957ZM35.9959 31.9125C34.6797 31.9125 33.6127 32.9795 33.6127 34.2957C33.6127 35.6119 34.6797 36.6789 35.9959 36.6789C37.3121 36.6789 38.3791 35.6119 38.3791 34.2957C38.3791 32.9795 37.3121 31.9125 35.9959 31.9125Z" fill="#9A9A9A"/>
</g>
</svg>
