<svg width="24" height="24" viewBox="0 0 24 24" xmlns="http://www.w3.org/2000/svg"><path fill-rule="evenodd" clip-rule="evenodd" d="M8.88889 6.55556H14.9517C15.8189 6.55556 16.1331 6.64578 16.4497 6.81533C16.7662 6.98489 17.0151 7.23378 17.1847 7.55033C17.3542 7.86689 17.4444 8.18111 17.4444 9.04833V15.1111C17.4444 15.3174 17.5264 15.5152 17.6722 15.6611C17.8181 15.8069 18.0159 15.8889 18.2222 15.8889C18.4285 15.8889 18.6263 15.8069 18.7722 15.6611C18.9181 15.5152 19 15.3174 19 15.1111V8.98844C19 7.60167 18.8553 7.09844 18.5847 6.59133C18.3194 6.09029 17.9097 5.68056 17.4087 5.41533C16.9016 5.14467 16.3983 5 15.0116 5H8.88889C8.68261 5 8.48478 5.08194 8.33892 5.22781C8.19306 5.37367 8.11111 5.5715 8.11111 5.77778C8.11111 5.98406 8.19306 6.18189 8.33892 6.32775C8.48478 6.47361 8.68261 6.55556 8.88889 6.55556ZM14.8941 8.37089C14.5776 8.20133 14.2633 8.11111 13.3961 8.11111H7.49278C6.62556 8.11111 6.31133 8.20133 5.99478 8.37089C5.68163 8.53666 5.42555 8.79274 5.25978 9.10589C5.09022 9.42244 5 9.73667 5 10.6039V16.5072C5 17.3737 5.09022 17.6887 5.25978 18.0052C5.42933 18.3218 5.67822 18.5707 5.99478 18.7402C6.31133 18.9098 6.62556 19 7.49278 19H13.3961C14.2626 19 14.5776 18.9098 14.8941 18.7402C15.2107 18.5707 15.4596 18.3218 15.6291 18.0052C15.7987 17.6887 15.8889 17.3744 15.8889 16.5072V10.6039C15.8889 9.73667 15.7987 9.42244 15.6291 9.10589C15.4633 8.79274 15.2073 8.53666 14.8941 8.37089Z"/></svg>