<svg width="14" height="14" viewBox="0 0 14 14" xmlns="http://www.w3.org/2000/svg">
<path fill-rule="evenodd" clip-rule="evenodd" d="M1 3.33333C1 2.96514 1.29848 2.66666 1.66667 2.66666H12.3333C12.7015 2.66666 13 2.96514 13 3.33333C13 3.70152 12.7015 4 12.3333 4H1.66667C1.29848 4 1 3.70152 1 3.33333Z"/>
<path fill-rule="evenodd" clip-rule="evenodd" d="M2.99992 2.66666C3.36811 2.66666 3.66659 2.96514 3.66659 3.33333V10.6667C3.66659 11.4031 4.26353 12 4.99992 12H8.99992C9.73633 12 10.3333 11.4031 10.3333 10.6667V3.33333C10.3333 2.96514 10.6317 2.66666 10.9999 2.66666C11.3681 2.66666 11.6666 2.96514 11.6666 3.33333V10.6667C11.6666 12.1395 10.4727 13.3333 8.99992 13.3333H4.99992C3.52717 13.3333 2.33325 12.1395 2.33325 10.6667V3.33333C2.33325 2.96514 2.63173 2.66666 2.99992 2.66666Z"/>
<path fill-rule="evenodd" clip-rule="evenodd" d="M6.33325 1.33333C5.96506 1.33333 5.66659 1.63181 5.66659 2V2.66667H8.33325V2C8.33325 1.6318 8.03479 1.33333 7.66659 1.33333H6.33325ZM4.33325 2C4.33325 0.89543 5.22868 0 6.33325 0H7.66659C8.77118 0 9.66658 0.895437 9.66658 2V3.33333C9.66658 3.70152 9.36811 4 8.99992 4H4.99992C4.63173 4 4.33325 3.70152 4.33325 3.33333V2Z"/>
</svg>