<svg width="24" height="24" viewBox="0 0 24 24" xmlns="http://www.w3.org/2000/svg"><path fill-rule="evenodd" clip-rule="evenodd" d="M7.29289 14.2929C7.68342 13.9024 8.31658 13.9024 8.70711 14.2929L12 17.5858L15.2929 14.2929C15.6834 13.9024 16.3166 13.9024 16.7071 14.2929C17.0976 14.6834 17.0976 15.3166 16.7071 15.7071L12.7071 19.7071C12.3166 20.0976 11.6834 20.0976 11.2929 19.7071L7.29289 15.7071C6.90237 15.3166 6.90237 14.6834 7.29289 14.2929Z"/><path fill-rule="evenodd" clip-rule="evenodd" d="M12.8335 9V17.667H11.1665V9H12.8335Z"/><path d="M12 10.334C13.473 10.334 14.667 9.13994 14.667 7.667C14.667 6.19406 13.473 5 12 5C10.5271 5 9.33301 6.19406 9.33301 7.667C9.33301 9.13994 10.5271 10.334 12 10.334Z"/></svg>