<?xml version="1.0" encoding="utf-8"?><svg viewBox="0 0 48 48" xmlns="http://www.w3.org/2000/svg" xmlns:xlink="http://www.w3.org/1999/xlink"><style>:root>svg{display:none}:root>svg:target{display:block}</style><svg fill="none" viewBox="0 0 48 48" id="adv" xmlns="http://www.w3.org/2000/svg"><path d="M18.746 33.263h3.84L16.581 16h-4.247L6.34 33.263h3.709l1.316-4.187h6.065l1.316 4.187zm-4.39-13.961h.083l2.213 7.07h-4.51l2.213-7.07zM24.602 16v17.263h6.592c5.18 0 8.23-3.218 8.23-8.697 0-5.48-3.05-8.566-8.23-8.566h-6.592zm3.613 2.979h2.548c3.183 0 4.977 1.986 4.977 5.599 0 3.732-1.747 5.694-4.977 5.694h-2.548V18.98z" fill="#000"/><path fill-rule="evenodd" clip-rule="evenodd" d="M4.703 22.89c0-.716.58-1.296 1.297-1.296h35.009a1.297 1.297 0 110 2.593H6c-.716 0-1.297-.58-1.297-1.297z" fill="#000"/></svg><svg viewBox="0 0 24 24" id="arrow-type-1" xmlns="http://www.w3.org/2000/svg"><path fill-rule="evenodd" clip-rule="evenodd" d="M14.657 19.435l-6.364-6.364a1 1 0 010-1.414l6.364-6.364a1 1 0 111.414 1.414l-5.57 5.571v.172l5.57 5.57a1 1 0 01-1.414 1.415z"/></svg><svg fill="none" viewBox="0 0 48 48" id="atoms" xmlns="http://www.w3.org/2000/svg"><mask id="aca" style="mask-type:luminance" maskUnits="userSpaceOnUse" x="2" y="4" width="41" height="38"><path d="M42.514 4H2v37.82h40.514V4z" fill="#fff"/></mask><g mask="url(#aca)"><path d="M23.604 26.672a3.816 3.816 0 100-7.631 3.816 3.816 0 000 7.631z" fill="#242429"/><path fill-rule="evenodd" clip-rule="evenodd" d="M23.605 7.908c-1.174 0-2.762 1.073-4.158 4.03-1.334 2.825-2.207 6.85-2.207 11.39 0 4.541.873 8.567 2.207 11.392l-.78.369.78-.369c1.396 2.957 2.984 4.03 4.158 4.03 1.174 0 2.762-1.073 4.158-4.03l.786.371-.786-.37c1.335-2.826 2.207-6.852 2.207-11.392 0-4.54-.872-8.566-2.207-11.391-1.396-2.957-2.984-4.03-4.158-4.03zm-5.73 3.288c1.468-3.108 3.495-5.026 5.73-5.026 2.236 0 4.262 1.918 5.73 5.026l-.786.37.786-.37c1.466 3.105 2.373 7.395 2.373 12.133 0 4.738-.907 9.028-2.373 12.133-1.468 3.108-3.494 5.026-5.73 5.026-2.235 0-4.262-1.918-5.73-5.026-1.466-3.105-2.373-7.395-2.373-12.133 0-4.738.907-9.028 2.374-12.133zm.786.37l-.785-.37.785.37z" fill="#242429"/><path fill-rule="evenodd" clip-rule="evenodd" d="M15.818 14.021c-3.259-.269-4.982.57-5.57 1.586-.586 1.017-.45 2.929 1.412 5.616 1.78 2.569 4.83 5.337 8.761 7.607 3.932 2.27 7.855 3.527 10.969 3.785 3.258.269 4.982-.57 5.569-1.587.587-1.016.451-2.928-1.411-5.615-1.78-2.569-4.83-5.337-8.762-7.607-3.932-2.27-7.854-3.527-10.968-3.785zm-7.074.717c1.118-1.936 3.791-2.732 7.217-2.449 3.422.283 7.59 1.643 11.694 4.012l-.434.752.434-.752c4.104 2.369 7.365 5.3 9.321 8.122l-.714.495.714-.495c1.958 2.825 2.606 5.538 1.488 7.474-1.118 1.937-3.792 2.733-7.217 2.45-3.423-.283-7.591-1.643-11.695-4.012-4.103-2.369-7.365-5.3-9.32-8.122-1.958-2.825-2.606-5.538-1.488-7.475z" fill="#242429"/><path fill-rule="evenodd" clip-rule="evenodd" d="M36.958 15.632c-.587-1.017-2.31-1.855-5.569-1.586-3.114.257-7.037 1.514-10.968 3.784-3.933 2.27-6.982 5.039-8.762 7.607-1.863 2.688-1.998 4.6-1.411 5.616.587 1.017 2.31 1.855 5.569 1.586 3.114-.257 7.037-1.514 10.968-3.784l.435.753-.434-.753c3.931-2.27 6.981-5.039 8.761-7.607 1.863-2.687 1.998-4.6 1.411-5.616zm-5.712-3.318c3.425-.283 6.1.513 7.217 2.45 1.118 1.935.47 4.649-1.488 7.474-1.956 2.823-5.217 5.753-9.32 8.122l-.402-.695.401.695c-4.103 2.37-8.272 3.729-11.694 4.011-3.426.283-6.1-.513-7.217-2.449-1.118-1.936-.47-4.65 1.487-7.475 1.957-2.822 5.218-5.752 9.322-8.122 4.103-2.369 8.272-3.728 11.694-4.01z" fill="#242429"/><path d="M29.323 14.742a3.337 3.337 0 100-6.673 3.337 3.337 0 000 6.673z" fill="#242429"/><path fill-rule="evenodd" clip-rule="evenodd" d="M25.033 11.406a4.29 4.29 0 118.58 0 4.29 4.29 0 01-8.58 0zm4.29-2.383a2.383 2.383 0 100 4.766 2.383 2.383 0 000-4.766z" fill="#9A9A9A"/><path d="M8.351 31.907a3.336 3.336 0 100-6.672 3.336 3.336 0 000 6.672z" fill="#242429"/><path fill-rule="evenodd" clip-rule="evenodd" d="M4.062 28.571a4.29 4.29 0 118.58 0 4.29 4.29 0 01-8.58 0zm4.29-2.383a2.383 2.383 0 100 4.766 2.383 2.383 0 000-4.766z" fill="#9A9A9A"/><path d="M35.996 37.632a3.337 3.337 0 100-6.673 3.337 3.337 0 000 6.673z" fill="#242429"/><path fill-rule="evenodd" clip-rule="evenodd" d="M31.706 34.296a4.29 4.29 0 118.58 0 4.29 4.29 0 01-8.58 0zm4.29-2.383a2.383 2.383 0 100 4.766 2.383 2.383 0 000-4.767z" fill="#9A9A9A"/></g></svg><svg viewBox="0 0 24 24" id="chat" xmlns="http://www.w3.org/2000/svg"><path fill-rule="evenodd" clip-rule="evenodd" d="M5 4a1 1 0 00-1 1v13.586l2.293-2.293A1 1 0 017 16h12a1 1 0 001-1V5a1 1 0 00-1-1H5zM2.879 2.879A3 3 0 015 2h14a3 3 0 013 3v10a3 3 0 01-3 3H7.414l-3.707 3.707A1 1 0 012 21V5a3 3 0 01.879-2.121z"/></svg><svg fill="none" viewBox="0 0 48 48" id="chatgpt-v-3" xmlns="http://www.w3.org/2000/svg"><path d="M40.79 21.447a9.41 9.41 0 00-.81-7.724 9.51 9.51 0 00-10.24-4.561 9.541 9.541 0 00-16.162 3.415A9.413 9.413 0 007.29 17.14 9.51 9.51 0 008.458 28.3a9.406 9.406 0 00.804 7.724 9.518 9.518 0 0010.246 4.561A9.411 9.411 0 0026.6 43.75a9.524 9.524 0 009.078-6.615 9.42 9.42 0 006.288-4.562 9.525 9.525 0 00-1.176-11.125zM26.6 41.28a7.04 7.04 0 01-4.524-1.637l.223-.127 7.516-4.338a1.251 1.251 0 00.617-1.072V23.509l3.177 1.838a.112.112 0 01.06.082v8.78a7.084 7.084 0 01-7.07 7.07zm-15.195-6.49a7.032 7.032 0 01-.841-4.74l.223.135 7.523 4.338a1.214 1.214 0 001.228 0l9.19-5.298v3.668a.127.127 0 01-.052.097l-7.613 4.39a7.077 7.077 0 01-9.658-2.59zm-1.98-16.37a7.056 7.056 0 013.721-3.103v8.93a1.205 1.205 0 00.61 1.064l9.146 5.275-3.178 1.838a.12.12 0 01-.112 0l-7.597-4.382a7.084 7.084 0 01-2.59-9.66v.038zm26.104 6.065l-9.175-5.328 3.17-1.831a.118.118 0 01.112 0l7.598 4.39a7.07 7.07 0 01-1.065 12.747v-8.93a1.242 1.242 0 00-.64-1.048zm3.163-4.755l-.223-.134-7.508-4.376a1.22 1.22 0 00-1.236 0l-9.182 5.298V16.85a.105.105 0 01.045-.097l7.597-4.383a7.076 7.076 0 0110.507 7.33v.03zm-19.883 6.503l-3.178-1.83a.126.126 0 01-.06-.09v-8.758a7.075 7.075 0 017.98-7.01 7.076 7.076 0 013.622 1.578l-.223.126-7.516 4.338a1.25 1.25 0 00-.618 1.072l-.007 10.574zm1.726-3.72l4.093-2.36 4.1 2.36v4.717l-4.085 2.359-4.1-2.359-.008-4.717z" fill="#000"/></svg><svg fill="none" viewBox="0 0 48 48" id="chatgpt-v-4" xmlns="http://www.w3.org/2000/svg"><path d="M17.91 26.468l-3.665-2.111a.146.146 0 01-.07-.103V14.152a8.162 8.162 0 0113.382-6.266l-.258.146-8.668 5.004a1.443 1.443 0 00-.713 1.236l-.009 12.196z" fill="#000"/><path d="M40.844 18.967l-.258-.155-8.66-5.046a1.406 1.406 0 00-1.425 0l-10.591 6.11v-4.23a.122.122 0 01.051-.112l8.764-5.056a8.162 8.162 0 0112.119 8.455v.034z" fill="#000"/><path d="M37.196 24.452l-10.583-6.146 3.656-2.112a.137.137 0 01.129 0l8.763 5.064a8.154 8.154 0 01-1.227 14.703v-10.3a1.432 1.432 0 00-.738-1.21z" fill="#000"/><path d="M26.896 43.823a8.12 8.12 0 01-5.218-1.888l.257-.146 8.669-5.004a1.44 1.44 0 00.713-1.236V23.327l3.664 2.12a.129.129 0 01.07.095V35.67a8.17 8.17 0 01-8.155 8.153z" fill="#000"/><path d="M9.37 36.34a8.112 8.112 0 01-.97-5.469l.257.155 8.678 5.004a1.4 1.4 0 001.416 0l10.6-6.111v4.231a.146.146 0 01-.06.112l-8.78 5.064a8.163 8.163 0 01-11.142-2.987z" fill="#000"/><path d="M7.087 17.456a8.137 8.137 0 014.291-3.579v10.3a1.392 1.392 0 00.704 1.227L22.63 31.49l-3.665 2.12a.136.136 0 01-.128 0l-8.764-5.056a8.172 8.172 0 01-2.986-11.14v.042z" fill="#000"/><path d="M19.9 22.177l4.722-2.721 4.729 2.72v5.443l-4.712 2.72-4.73-2.72-.008-5.442z" fill="#000"/></svg><svg viewBox="0 0 24 24" id="checked" xmlns="http://www.w3.org/2000/svg"><path fill-rule="evenodd" clip-rule="evenodd" d="M21.28 5.22a.75.75 0 010 1.06L8.905 18.655a.75.75 0 01-1.06 0L2.22 13.03a.75.75 0 111.06-1.06l5.095 5.094L20.22 5.22a.75.75 0 011.06 0z"/></svg><svg viewBox="0 0 30 30" id="close" xmlns="http://www.w3.org/2000/svg"><path fill-rule="evenodd" clip-rule="evenodd" d="M6.952 6.951a1.2 1.2 0 011.697 0L15 13.303l6.352-6.352a1.2 1.2 0 111.697 1.698L16.697 15l6.352 6.352a1.2 1.2 0 11-1.697 1.697L15 16.697 8.65 23.05a1.2 1.2 0 11-1.697-1.697L13.303 15 6.952 8.649a1.2 1.2 0 010-1.698z"/></svg><svg viewBox="0 0 24 24" id="copy" xmlns="http://www.w3.org/2000/svg"><path fill-rule="evenodd" clip-rule="evenodd" d="M8.889 6.556h6.063c.867 0 1.181.09 1.498.26.316.169.565.418.735.734.17.317.26.631.26 1.498v6.063a.778.778 0 001.555 0V8.988c0-1.386-.145-1.89-.415-2.397a2.828 2.828 0 00-1.176-1.176c-.507-.27-1.01-.415-2.397-.415H8.889a.778.778 0 100 1.556zm6.005 1.815c-.316-.17-.63-.26-1.498-.26H7.493c-.867 0-1.182.09-1.498.26-.313.166-.57.422-.735.735-.17.316-.26.63-.26 1.498v5.903c0 .867.09 1.182.26 1.498.17.317.418.566.735.735.316.17.63.26 1.498.26h5.903c.867 0 1.182-.09 1.498-.26a1.77 1.77 0 00.735-.735c.17-.316.26-.63.26-1.498v-5.903c0-.867-.09-1.182-.26-1.498a1.767 1.767 0 00-.735-.735z"/></svg><svg viewBox="0 0 14 14" id="delete" xmlns="http://www.w3.org/2000/svg"><path fill-rule="evenodd" clip-rule="evenodd" d="M1 3.333c0-.368.298-.666.667-.666h10.666a.667.667 0 110 1.333H1.667A.667.667 0 011 3.333z"/><path fill-rule="evenodd" clip-rule="evenodd" d="M3 2.667c.368 0 .667.298.667.666v7.334C3.667 11.403 4.264 12 5 12h4c.736 0 1.333-.597 1.333-1.333V3.333a.667.667 0 111.334 0v7.334A2.667 2.667 0 019 13.333H5a2.667 2.667 0 01-2.667-2.666V3.333c0-.368.299-.666.667-.666z"/><path fill-rule="evenodd" clip-rule="evenodd" d="M6.333 1.333A.667.667 0 005.667 2v.667h2.666V2a.667.667 0 00-.666-.667H6.333zm-2 .667a2 2 0 012-2h1.334a2 2 0 012 2v1.333A.667.667 0 019 4H5a.667.667 0 01-.667-.667V2z"/></svg><svg viewBox="0 0 24 24" id="details" xmlns="http://www.w3.org/2000/svg"><path fill-rule="evenodd" clip-rule="evenodd" d="M7.293 14.293a1 1 0 011.414 0L12 17.586l3.293-3.293a1 1 0 011.414 1.414l-4 4a1 1 0 01-1.414 0l-4-4a1 1 0 010-1.414z"/><path fill-rule="evenodd" clip-rule="evenodd" d="M12.834 9v8.667h-1.668V9h1.668z"/><path d="M12 10.334A2.667 2.667 0 1012 5a2.667 2.667 0 000 5.334z"/></svg><svg viewBox="0 0 24 24" id="dislike" xmlns="http://www.w3.org/2000/svg"><path d="M10.591 19.314c-.607-.444-.914-1.205-.914-2.253v-2.488H6.23A2.233 2.233 0 014 12.343v-.068c0-.02.003-.042.007-.062l.917-5.762c.17-1.384 1.136-2.18 2.648-2.18h6.83c1.227 0 2.229.998 2.229 2.23v6.401c0 .193.157.35.35.35h1.87a.35.35 0 00.35-.35V6.115a.35.35 0 00-.35-.35h-1.08a.401.401 0 110-.803h1.08c.633 0 1.149.516 1.149 1.15v6.79a1.15 1.15 0 01-1.15 1.15h-1.87c-.45 0-.842-.262-1.031-.64a.353.353 0 01-.089.035c-.107.03-2.657.777-2.657 2.978v2.794a.4.4 0 01-.28.382c-.053.016-1.372.418-2.332-.287zm5.057-6.634a.387.387 0 01.183-.006V6.5c0-.787-.64-1.43-1.43-1.43H7.572c-1.11 0-1.734.496-1.858 1.492L4.8 12.308v.036c0 .787.64 1.43 1.43 1.43h3.849c.222 0 .401.18.401.401v2.886c0 .78.196 1.32.585 1.606.42.314 1.002.284 1.341.229v-2.468c0-2.808 3.108-3.712 3.242-3.748z"/></svg><svg fill="none" viewBox="0 0 48 48" id="earth" xmlns="http://www.w3.org/2000/svg"><path d="M44 24c0 11.046-8.954 20-20 20m20-20c0-11.046-8.954-20-20-20m20 20H4m20 20C12.954 44 4 35.046 4 24m20 20a30.6 30.6 0 008-20 30.6 30.6 0 00-8-20m0 40a30.6 30.6 0 01-8-20 30.6 30.6 0 018-20M4 24C4 12.954 12.954 4 24 4" stroke="#101828" stroke-width="2" stroke-linecap="round" stroke-linejoin="round"/></svg><svg viewBox="0 0 14 14" id="edit" xmlns="http://www.w3.org/2000/svg"><path fill-rule="evenodd" clip-rule="evenodd" d="M10.5 2.333a.654.654 0 00-.462.192L2.86 9.703l-.308 1.233 1.233-.309 7.177-7.177a.654.654 0 00-.462-1.117zM9.212 1.7a1.821 1.821 0 012.576 2.575l-7.292 7.292a.583.583 0 01-.272.153l-2.333.583a.583.583 0 01-.707-.707l.583-2.333a.584.584 0 01.153-.271L9.212 1.7zM6.417 11.738c0-.322.26-.583.583-.583h5.25a.584.584 0 010 1.167H7a.583.583 0 01-.583-.584z"/></svg><svg viewBox="0 0 24 24" id="email" xmlns="http://www.w3.org/2000/svg"><path d="M23.545 9.048a.282.282 0 01.455.22v9.586a2.25 2.25 0 01-2.25 2.25H2.25A2.25 2.25 0 010 18.854V9.273a.28.28 0 01.455-.22c1.05.815 2.442 1.851 7.223 5.324.99.722 2.658 2.241 4.322 2.232 1.673.014 3.375-1.538 4.327-2.232 4.78-3.473 6.168-4.514 7.218-5.33zM12 15.104c1.088.019 2.653-1.369 3.44-1.94 6.22-4.515 6.694-4.908 8.129-6.033.272-.211.431-.54.431-.886v-.891a2.25 2.25 0 00-2.25-2.25H2.25A2.25 2.25 0 000 5.354v.89c0 .348.16.67.431.887C1.866 8.25 2.34 8.649 8.56 13.163c.788.572 2.354 1.96 3.441 1.941z"/></svg><svg fill="none" viewBox="0 0 48 48" id="file" xmlns="http://www.w3.org/2000/svg"><path d="M28 4H12a4 4 0 00-4 4v32a4 4 0 004 4h24a4 4 0 004-4V16M28 4l12 12M28 4v12h12m-8 10H16m16 8H16m4-16h-4" stroke="#9A9A9A" stroke-width="2" stroke-linecap="round" stroke-linejoin="round"/></svg><svg viewBox="0 0 24 24" id="google-color" xmlns="http://www.w3.org/2000/svg"><path d="M23.766 12.276c0-.815-.066-1.635-.207-2.438H12.24v4.621h6.482a5.555 5.555 0 01-2.399 3.647v2.998h3.867c2.271-2.09 3.576-5.177 3.576-8.828z" fill="#4285F4"/><path d="M12.24 24c3.236 0 5.966-1.062 7.954-2.896l-3.867-2.998c-1.076.731-2.464 1.146-4.083 1.146-3.13 0-5.785-2.112-6.737-4.952h-3.99v3.091a12.002 12.002 0 0010.723 6.61z" fill="#34A853"/><path d="M5.503 14.3a7.188 7.188 0 010-4.594V6.615H1.517a12.01 12.01 0 000 10.776l3.986-3.09z" fill="#FBBC04"/><path d="M12.24 4.75a6.521 6.521 0 014.603 1.799l3.426-3.426A11.533 11.533 0 0012.24 0 11.998 11.998 0 001.517 6.615l3.986 3.09C6.45 6.863 9.11 4.75 12.24 4.75z" fill="#EA4335"/></svg><svg fill="none" viewBox="0 0 48 48" id="infinite" xmlns="http://www.w3.org/2000/svg"><path fill-rule="evenodd" clip-rule="evenodd" d="M17.173 21.372c-1.52-1.29-3.181-1.834-4.404-1.723-3.631.33-5.135 2.5-5.135 4.168 0 1.67 1.504 3.84 5.135 4.169 1.223.111 2.884-.434 4.404-1.723.77-.653 1.271-1.299 1.566-1.81.188-.328.261-.542.289-.636a2.98 2.98 0 00-.289-.634c-.295-.512-.797-1.158-1.566-1.811zm-4.914-7.334c3.128-.284 6.233 1.065 8.558 3.037 1.237 1.049 2.168 2.19 2.804 3.295.602 1.044 1.057 2.262 1.057 3.447 0 1.186-.455 2.404-1.056 3.448-.637 1.105-1.568 2.246-2.805 3.295-2.325 1.972-5.43 3.322-8.558 3.037m0-19.56C6.574 14.555 2 18.455 2 23.818c0 5.364 4.574 9.264 10.26 9.78" fill="#000"/><path fill-rule="evenodd" clip-rule="evenodd" d="M30.026 21.372c1.52-1.29 3.18-1.834 4.403-1.723 3.632.33 5.135 2.5 5.135 4.168 0 1.67-1.503 3.84-5.134 4.169-1.224.111-2.884-.434-4.404-1.723-.77-.653-1.272-1.299-1.567-1.81a2.981 2.981 0 01-.288-.636c.027-.093.1-.308.288-.634.295-.512.797-1.158 1.567-1.811zm4.913-7.334c-3.128-.284-6.233 1.065-8.558 3.037-1.236 1.049-2.167 2.19-2.804 3.295-.602 1.044-1.057 2.262-1.057 3.447 0 1.186.456 2.404 1.057 3.448.637 1.105 1.567 2.246 2.804 3.295 2.325 1.972 5.43 3.322 8.558 3.037m0-19.56c5.686.517 10.26 4.417 10.26 9.78 0 5.364-4.574 9.264-10.26 9.78" fill="#000"/></svg><svg viewBox="0 0 24 24" id="like" xmlns="http://www.w3.org/2000/svg"><path d="M13.409 4.686c.607.444.914 1.205.914 2.253v2.487h3.447c1.228 0 2.23 1 2.23 2.23v.069c0 .02-.003.042-.006.062l-.918 5.762c-.17 1.384-1.136 2.18-2.648 2.18h-6.83A2.233 2.233 0 017.37 17.5v-6.401a.35.35 0 00-.35-.35H5.15a.35.35 0 00-.35.35v6.787c0 .193.158.35.35.35h1.08a.401.401 0 110 .803H5.15A1.15 1.15 0 014 17.888v-6.79c0-.633.516-1.15 1.15-1.15h1.87c.45 0 .842.262 1.031.64a.357.357 0 01.089-.035c.107-.03 2.657-.777 2.657-2.978V4.781a.4.4 0 01.28-.382c.053-.016 1.372-.418 2.332.287zM8.352 11.32a.387.387 0 01-.183.006V17.5c0 .787.64 1.43 1.43 1.43h6.83c1.11 0 1.733-.496 1.857-1.492l.914-5.746v-.036c0-.787-.64-1.43-1.43-1.43h-3.849a.401.401 0 01-.401-.401V6.939c0-.78-.196-1.32-.585-1.606-.42-.314-1.002-.284-1.341-.229v2.468c0 2.808-3.108 3.712-3.242 3.748z"/></svg><svg viewBox="0 0 30 30" id="menu-open" xmlns="http://www.w3.org/2000/svg"><path d="M7.048 3h16.487a6.03 6.03 0 014.27 1.777l.052.056a6.028 6.028 0 011.726 4.218v11.9a6.03 6.03 0 01-1.777 4.272A6.03 6.03 0 0123.534 27H7.048a6.029 6.029 0 01-4.268-1.777h-.003A6.031 6.031 0 011 20.949V9.05c0-1.66.68-3.171 1.777-4.27l.005-.006A6.037 6.037 0 017.048 3zM8 9.918h14.585c.524 0 .952.428.952.952a.954.954 0 01-.952.951H8a.954.954 0 01-.952-.951c0-.524.428-.952.952-.952zm0 8.26h14.585c.524 0 .952.429.952.952a.954.954 0 01-.952.952H8a.954.954 0 01-.952-.952c0-.523.428-.951.952-.951zm0-4.128h14.585c.524 0 .952.428.952.951a.954.954 0 01-.952.952H8A.954.954 0 017.048 15c0-.523.428-.951.952-.951zm15.537-9.142H7.048c-1.14 0-2.175.465-2.924 1.214l-.004.004a4.125 4.125 0 00-1.212 2.922V20.95c0 1.138.467 2.173 1.216 2.922l-.002.003a4.137 4.137 0 002.924 1.216h16.486c1.135 0 2.17-.467 2.922-1.219a4.128 4.128 0 001.219-2.922V9.05A4.142 4.142 0 0026.5 6.165l-.044-.042a4.122 4.122 0 00-2.92-1.216z"/></svg><svg viewBox="0 0 24 24" id="minus" xmlns="http://www.w3.org/2000/svg"><path d="M3 12a1 1 0 011-1h16a1 1 0 110 2H4a1 1 0 01-1-1z"/></svg><svg viewBox="0 0 24 24" id="plus" xmlns="http://www.w3.org/2000/svg"><path d="M11 1a1 1 0 112 0v22a1 1 0 11-2 0V1z"/><path d="M1 13a1 1 0 110-2h22a1 1 0 110 2H1z"/></svg><svg viewBox="0 0 24 24" id="plus-type-2" xmlns="http://www.w3.org/2000/svg"><path fill-rule="evenodd" clip-rule="evenodd" d="M1.414 12.314a1 1 0 011-1h8.9v-8.9a1 1 0 112 0v8.9h8.9a1 1 0 110 2h-8.9v8.9a1 1 0 11-2 0v-8.9h-8.9a1 1 0 01-1-1z"/></svg><svg viewBox="0 0 24 24" id="refresh" xmlns="http://www.w3.org/2000/svg"><path d="M18.517 18.549a9.179 9.179 0 01-6.53 2.704c-5.09 0-9.23-4.138-9.235-9.225l1.884 1.886a.32.32 0 00.45-.45l-2.497-2.498-2.495 2.498a.318.318 0 10.448.45l1.586-1.586c.165 5.3 4.516 9.562 9.855 9.562a9.81 9.81 0 006.982-2.892.318.318 0 00-.448-.45zM23.906 10.086a.318.318 0 00-.45 0l-1.583 1.586c-.167-5.3-4.518-9.562-9.856-9.562a9.81 9.81 0 00-6.983 2.892.317.317 0 000 .45.317.317 0 00.45 0 9.178 9.178 0 016.53-2.705c5.088 0 9.23 4.137 9.236 9.225l-1.885-1.886a.319.319 0 00-.45.45l2.496 2.497 2.496-2.497a.318.318 0 000-.45z"/></svg><svg viewBox="0 0 24 24" id="send" xmlns="http://www.w3.org/2000/svg"><path fill-rule="evenodd" clip-rule="evenodd" d="M21.024 2.492l-.001.003zm-.295.78l-6.462 17.072-2.8-6.9a1.5 1.5 0 00-.912-.912L3.653 9.734 20.73 3.27zm.245-1.697a1.125 1.125 0 011.45 1.453l-7.099 18.758a1.125 1.125 0 01-2.1-.024l-3.155-7.771a.763.763 0 01-.016-.045.73.73 0 01-.044-.016l-7.77-3.15a1.125 1.125 0 01-.019-2.108l.004-.001 18.747-7.096h.002z"/><path fill-rule="evenodd" clip-rule="evenodd" d="M22.093 1.907a.75.75 0 010 1.06L11.17 13.89a.75.75 0 01-1.06-1.06L21.031 1.906a.75.75 0 011.06 0z"/></svg><svg viewBox="0 0 24 24" id="settings" xmlns="http://www.w3.org/2000/svg"><path fill-rule="evenodd" clip-rule="evenodd" d="M12 2a1 1 0 00-1 1v.174a2.65 2.65 0 01-1.606 2.425 1 1 0 01-.264.073 2.65 2.65 0 01-2.73-.607l-.007-.008-.06-.06a1.003 1.003 0 00-1.415 0h-.001a1 1 0 000 1.415l.068.069a2.65 2.65 0 01.542 2.894 2.65 2.65 0 01-2.414 1.705H3a1 1 0 000 2h.174a2.65 2.65 0 012.423 1.601 2.65 2.65 0 01-.532 2.918l-.008.008-.06.06a1.003 1.003 0 00-.217 1.09 1 1 0 00.217.325v.001a.999.999 0 001.415 0l.069-.068a2.65 2.65 0 012.894-.543 2.65 2.65 0 011.705 2.415V21a1 1 0 002 0V20.826a2.65 2.65 0 011.601-2.423 2.65 2.65 0 012.918.532l.008.008.06.06a1.002 1.002 0 001.415 0h.001a1 1 0 000-1.416l-.068-.068a2.65 2.65 0 01-.532-2.918A2.65 2.65 0 0120.906 13H21a1 1 0 000-2H20.826a2.65 2.65 0 01-2.425-1.606.999.999 0 01-.073-.264 2.65 2.65 0 01.607-2.73l.008-.007.06-.06a1.002 1.002 0 000-1.415v-.001a1 1 0 00-1.416 0l-.068.068a2.65 2.65 0 01-2.918.532A2.65 2.65 0 0113 3.094V3a1 1 0 00-1-1zM9.879.879A3 3 0 0115 3v.087a.65.65 0 00.394.594l.01.004a.65.65 0 00.714-.127l.055-.055a3 3 0 014.895 3.27c-.151.365-.372.696-.65.974-.001 0 0 0 0 0l-.056.055a.65.65 0 00-.127.714c.028.064.05.13.064.2a.65.65 0 00.534.284H21a3 3 0 110 6h-.087a.65.65 0 00-.594.394l-.004.01a.65.65 0 00.127.714l.055.055a3.002 3.002 0 010 4.245l-.707-.708.707.707a3 3 0 01-4.244 0l-.055-.055a.65.65 0 00-.714-.127l-.01.004a.649.649 0 00-.394.593V21a3 3 0 01-6 0v-.076a.65.65 0 00-.425-.585.955.955 0 01-.059-.024.65.65 0 00-.714.127l-.054.055a3.002 3.002 0 11-4.245-4.244l.055-.055a.65.65 0 00.127-.714l-.004-.01a.649.649 0 00-.594-.394H3a3 3 0 010-6h.076a.65.65 0 00.585-.425l.024-.059a.65.65 0 00-.127-.714l-.055-.054a3 3 0 114.244-4.245l.055.055a.65.65 0 00.714.127 1 1 0 01.2-.064A.65.65 0 009 3.167V3A3 3 0 019.879.879zM12 10a2 2 0 100 4 2 2 0 000-4zm-4 2a4 4 0 118 0 4 4 0 01-8 0z"/></svg><svg fill="none" viewBox="0 0 48 48" id="upload-file" xmlns="http://www.w3.org/2000/svg"><g clip-path="url(#baclip0_2045_2242)" fill="#9A9A9A"><path fill-rule="evenodd" clip-rule="evenodd" d="M4.923 6.77A6.77 6.77 0 0111.693 0h19.659c1.388 0 2.69.668 3.5 1.796l7.417 10.333c.525.732.808 1.61.808 2.512v26.59A6.77 6.77 0 0136.307 48H11.692a6.77 6.77 0 01-6.77-6.77V6.77zm6.77-3.078A3.077 3.077 0 008.614 6.77v34.462c0 1.7 1.378 3.077 3.077 3.077h24.615c1.7 0 3.077-1.378 3.077-3.077V16.36h-8a1.846 1.846 0 01-1.846-1.845V3.692H11.692z"/><path d="M31.596 27a1.846 1.846 0 01-2.595.288l-3.155-2.524v8.467a1.846 1.846 0 01-3.692 0v-8.467L19 27.288a1.846 1.846 0 01-2.307-2.884l6.147-4.917a1.84 1.84 0 011.145-.41H24.006c.441.001.845.157 1.162.416l6.14 4.911c.795.637.924 1.8.288 2.595z"/></g><defs><clipPath id="baclip0_2045_2242"><path fill="#fff" d="M0 0h48v48H0z"/></clipPath></defs></svg><svg viewBox="0 0 24 24" id="vk" xmlns="http://www.w3.org/2000/svg"><path fill-rule="evenodd" clip-rule="evenodd" d="M1.689 1.689C0 3.377 0 6.086 0 11.52v.96c0 5.434 0 8.143 1.689 9.831C3.377 24 6.086 24 11.52 24h.96c5.434 0 8.143 0 9.831-1.689C24 20.623 24 17.914 24 12.48v-.96c0-5.434 0-8.143-1.689-9.831C20.623 0 17.914 0 12.48 0h-.96C6.086 0 3.377 0 1.689 1.689zM3.986 7.5c.137 6.24 3.42 10.003 8.828 10.003h.317v-3.574c1.972.197 3.446 1.671 4.046 3.574h2.846a7.904 7.904 0 00-4.02-5.014 7.621 7.621 0 003.42-4.989h-2.589c-.548 1.989-2.16 3.789-3.703 3.96V7.5H10.5v6.926c-1.594-.395-3.686-2.34-3.771-6.926H3.986z"/></svg><svg fill="none" viewBox="0 0 48 48" id="youtube-color" xmlns="http://www.w3.org/2000/svg"><g clip-path="url(#bcclip0_2045_2259)"><path d="M47.043 12.371a6.032 6.032 0 00-4.243-4.27c-3.753-1.01-18.753-1.01-18.753-1.01s-15 0-18.753 1.01a6.033 6.033 0 00-4.243 4.27C.047 16.141.047 24.001.047 24.001s0 7.86 1.004 11.628A6.033 6.033 0 005.294 39.9c3.753 1.01 18.753 1.01 18.753 1.01s15 0 18.753-1.01a6.033 6.033 0 004.243-4.27C48.047 31.86 48.047 24 48.047 24s0-7.86-1.004-11.629z" fill="#FF0302"/><path d="M19.139 31.137V16.863L31.684 24 19.14 31.137z" fill="#FEFEFE"/></g><defs><clipPath id="bcclip0_2045_2259"><path fill="#fff" d="M0 0h48v48H0z"/></clipPath></defs></svg></svg>