<svg width="48" height="48" viewBox="0 0 48 48" fill="none" xmlns="http://www.w3.org/2000/svg">
<path fill-rule="evenodd" clip-rule="evenodd" d="M17.1727 21.3719C15.6526 20.0826 13.992 19.538 12.7689 19.6492L12.7687 19.6492C9.13751 19.9788 7.63448 22.1483 7.63448 23.8174C7.63448 25.4869 9.13757 27.6563 12.7687 27.9859L12.7689 27.986C13.992 28.0971 15.6526 27.5525 17.1727 26.2632L17.1727 26.2632C17.9423 25.6104 18.4444 24.9641 18.7392 24.4523C18.9275 24.1255 19.0001 23.9107 19.0277 23.8175C19.0001 23.7242 18.9275 23.5095 18.7393 23.1828C18.4444 22.671 17.9424 22.0248 17.1727 21.3719L17.1727 21.3719ZM12.2593 14.0378C15.3875 13.7536 18.4922 15.1028 20.8173 17.075C22.0537 18.1237 22.9847 19.2649 23.6214 20.37C24.2228 21.4139 24.6783 22.6317 24.6783 23.8174C24.6783 25.0032 24.2229 26.221 23.6215 27.265C22.9848 28.3701 22.0538 29.5114 20.8173 30.5602C18.4922 32.5323 15.3875 33.8815 12.2593 33.5974M12.2591 14.0378C6.57365 14.554 2 18.454 2 23.8174C2 29.1811 6.57359 33.0812 12.2591 33.5973" fill="black"/>
<path fill-rule="evenodd" clip-rule="evenodd" d="M30.0257 21.3719C31.5458 20.0826 33.2063 19.538 34.4294 19.6492L34.4297 19.6492C38.0608 19.9788 39.5638 22.1483 39.5638 23.8174C39.5638 25.4869 38.0608 27.6563 34.4297 27.9859L34.4294 27.986C33.2063 28.0971 31.5458 27.5525 30.0257 26.2632L30.0257 26.2632C29.256 25.6104 28.754 24.9641 28.4591 24.4523C28.2708 24.1255 28.1982 23.9107 28.1706 23.8175C28.1982 23.7242 28.2708 23.5095 28.4591 23.1828C28.7539 22.671 29.256 22.0248 30.0257 21.3719L30.0257 21.3719ZM34.939 14.0378C31.8108 13.7536 28.7061 15.1028 26.381 17.075C25.1446 18.1237 24.2136 19.2649 23.5769 20.37C22.9755 21.4139 22.52 22.6317 22.52 23.8174C22.52 25.0032 22.9755 26.221 23.5769 27.265C24.2136 28.3701 25.1445 29.5114 26.381 30.5602C28.7061 32.5323 31.8108 33.8815 34.939 33.5974M34.9393 14.0378C40.6247 14.554 45.1983 18.454 45.1983 23.8174C45.1983 29.1811 40.6247 33.0812 34.9393 33.5973" fill="black"/>
</svg>
