<svg width="24" height="24" viewBox="0 0 24 24" xmlns="http://www.w3.org/2000/svg"><path d="M13.4087 4.68615C14.0159 5.13015 14.3228 5.89081 14.3228 6.93876V9.42641H17.7703C18.9978 9.42641 20 10.4254 20 11.6562V11.7247C20 11.7443 19.9967 11.7672 19.9935 11.7867L19.0761 17.5488C18.9063 18.933 17.94 19.7296 16.4285 19.7296H9.59886C8.37135 19.7296 7.36911 18.7306 7.36911 17.4999V11.0979C7.36911 10.9053 7.21241 10.7486 7.01979 10.7486H5.14915C4.95654 10.7486 4.79984 10.9053 4.79984 11.0979V17.8851C4.79984 18.0777 4.95654 18.2344 5.14915 18.2344H6.22975C6.45174 18.2344 6.6313 18.414 6.6313 18.636C6.6313 18.858 6.45174 19.0375 6.22975 19.0375H5.14915C4.51581 19.0375 4 18.5217 4 17.8884V11.0979C4 10.4646 4.51581 9.94875 5.14915 9.94875H7.01979C7.47031 9.94875 7.86207 10.2099 8.05142 10.5886C8.07754 10.5723 8.10692 10.5625 8.13956 10.5527C8.2473 10.5233 10.797 9.77573 10.797 7.57536V4.78083C10.797 4.60454 10.9112 4.4511 11.0777 4.39887C11.13 4.38254 12.4489 3.98099 13.4087 4.68615ZM8.35177 11.3199C8.28974 11.3362 8.22771 11.3395 8.16895 11.3264V17.4999C8.16895 18.2866 8.80881 18.9298 9.59886 18.9298H11.7666H16.4285C17.5385 18.9298 18.162 18.4336 18.2861 17.4378L19.2002 11.6921V11.6562C19.2002 10.8694 18.5603 10.2262 17.7703 10.2262H13.9212C13.6992 10.2262 13.5197 10.0467 13.5197 9.8247V6.93876C13.5197 6.15851 13.3238 5.61984 12.9353 5.33255C12.5142 5.01915 11.9331 5.04853 11.5936 5.10403V7.5721C11.5936 10.3797 8.48562 11.284 8.35177 11.3199Z"/></svg>