<svg width="30" height="30" viewBox="0 0 30 30" xmlns="http://www.w3.org/2000/svg"><path d="M7.04827 3H23.5345C25.1977 3 26.7098 3.68159 27.8055 4.77726L27.8566 4.83309C28.9221 5.92411 29.5827 7.41524 29.5827 9.0506V20.9517C29.5827 22.615 28.9011 24.1271 27.8055 25.2227C26.7098 26.3184 25.1977 27 23.5345 27H7.04827C5.38732 27 3.87525 26.3184 2.77959 25.2227H2.77726C1.68159 24.1271 1 22.615 1 20.9494V9.04827C1 7.38965 1.67927 5.87758 2.77726 4.77959L2.78191 4.77261C3.87991 3.67927 5.38965 3 7.04827 3ZM7.99971 9.91829H22.5853C23.1088 9.91829 23.5368 10.3463 23.5368 10.8697C23.5368 11.3931 23.1088 11.8212 22.5853 11.8212H7.99971C7.4763 11.8212 7.04827 11.3931 7.04827 10.8697C7.04827 10.3463 7.4763 9.91829 7.99971 9.91829ZM7.99971 18.1788H22.5853C23.1088 18.1788 23.5368 18.6069 23.5368 19.1303C23.5368 19.6537 23.1088 20.0817 22.5853 20.0817H7.99971C7.4763 20.0817 7.04827 19.6537 7.04827 19.1303C7.04827 18.6069 7.4763 18.1788 7.99971 18.1788ZM7.99971 14.0497H22.5853C23.1088 14.0497 23.5368 14.4778 23.5368 15.0012C23.5368 15.5246 23.1088 15.9526 22.5853 15.9526H7.99971C7.4763 15.9526 7.04827 15.5246 7.04827 15.0012C7.04827 14.4778 7.4763 14.0497 7.99971 14.0497ZM23.5368 4.90753H7.04827C5.9084 4.90753 4.87322 5.37278 4.12416 6.12184L4.11951 6.12649C3.37278 6.87322 2.90753 7.9084 2.90753 9.04827V20.9494C2.90753 22.0869 3.37511 23.1221 4.12416 23.8712L4.12184 23.8735C4.87322 24.6226 5.9084 25.0901 7.04594 25.0901H23.5321C24.6673 25.0901 25.7025 24.6226 26.4539 23.8712C27.2053 23.1198 27.6729 22.0846 27.6729 20.9494V9.04827C27.6729 7.93167 27.2239 6.91509 26.5004 6.16604L26.4562 6.12416C25.7072 5.37511 24.6743 4.90753 23.5368 4.90753Z"/></svg>