<svg width="24" height="24" viewBox="0 0 24 24" xmlns="http://www.w3.org/2000/svg"><path fill-rule="evenodd" clip-rule="evenodd" d="M21.0238 2.4921L21.0228 2.49455ZM20.7289 3.27119L14.2673 20.3438L11.4677 13.4448C11.3931 13.2345 11.2726 13.0434 11.1146 12.8855C10.9566 12.7275 10.7655 12.6069 10.5551 12.5323L3.65311 9.73394L20.7289 3.27119ZM20.9736 1.57474C21.1761 1.4976 21.3966 1.4806 21.6086 1.52579C21.8211 1.57109 22.0159 1.67695 22.1695 1.83057C22.3231 1.98419 22.429 2.17901 22.4743 2.3915C22.5195 2.60354 22.5025 2.82413 22.4253 3.02671C22.4251 3.02712 22.4249 3.02754 22.4248 3.02795L15.3252 21.7864C15.2405 22 15.0923 22.1826 14.9008 22.3095C14.7093 22.4365 14.4835 22.5018 14.2538 22.4966C14.024 22.4913 13.8014 22.4159 13.6158 22.2804C13.4371 22.1499 13.301 21.9697 13.2243 21.7625L10.0704 13.9906C10.0645 13.976 10.059 13.9611 10.054 13.9461C10.039 13.9411 10.0242 13.9357 10.0097 13.9298L2.24047 10.7798C2.03247 10.7043 1.85111 10.569 1.71939 10.3906C1.58164 10.2041 1.50489 9.97955 1.49966 9.74772C1.49443 9.51589 1.56096 9.28811 1.69015 9.09555C1.81935 8.90298 2.00489 8.75505 2.22139 8.67198L2.22456 8.67076L20.9721 1.5753C20.9726 1.57511 20.9731 1.57493 20.9736 1.57474Z"/><path fill-rule="evenodd" clip-rule="evenodd" d="M22.0928 1.90719C22.3857 2.20008 22.3857 2.67495 22.0928 2.96785L11.171 13.8897C10.8781 14.1826 10.4032 14.1826 10.1103 13.8897C9.8174 13.5968 9.8174 13.122 10.1103 12.8291L21.0322 1.90719C21.3251 1.61429 21.7999 1.61429 22.0928 1.90719Z"/></svg>