<svg width="24" height="24" viewBox="0 0 24 24" xmlns="http://www.w3.org/2000/svg"><path d="M10.5913 19.3138C9.98408 18.8698 9.67721 18.1091 9.67721 17.0612V14.5735H6.22975C5.00224 14.5735 4 13.5746 4 12.3438V12.2752C4 12.2556 4.00326 12.2328 4.00653 12.2132L4.92389 6.45112C5.09365 5.06691 6.05999 4.27034 7.57152 4.27034H14.4011C15.6286 4.27034 16.6309 5.26932 16.6309 6.50009V12.902C16.6309 13.0947 16.7876 13.2514 16.9802 13.2514H18.8508C19.0435 13.2514 19.2002 13.0947 19.2002 12.902V6.11486C19.2002 5.92225 19.0435 5.76555 18.8508 5.76555H17.7703C17.5483 5.76555 17.3687 5.58599 17.3687 5.36399C17.3687 5.142 17.5483 4.96244 17.7703 4.96244H18.8508C19.4842 4.96244 20 5.47826 20 6.1116V12.902C20 13.5354 19.4842 14.0512 18.8508 14.0512H16.9802C16.5297 14.0512 16.1379 13.79 15.9486 13.4113C15.9225 13.4277 15.8931 13.4374 15.8604 13.4472C15.7527 13.4766 13.203 14.2242 13.203 16.4246V19.2191C13.203 19.3954 13.0888 19.5489 12.9223 19.6011C12.87 19.6174 11.5511 20.019 10.5913 19.3138ZM15.6482 12.6801C15.7103 12.6637 15.7723 12.6605 15.8311 12.6735V6.50009C15.8311 5.71331 15.1912 5.07018 14.4011 5.07018H12.2334H7.57152C6.46154 5.07018 5.83799 5.5664 5.71394 6.56212L4.79984 12.3079V12.3438C4.79984 13.1306 5.43971 13.7737 6.22975 13.7737H10.0788C10.3008 13.7737 10.4803 13.9533 10.4803 14.1753V17.0612C10.4803 17.8414 10.6762 18.3801 11.0647 18.6674C11.4858 18.9808 12.0669 18.9514 12.4064 18.8959V16.4279C12.4064 13.6203 15.5144 12.716 15.6482 12.6801Z"/></svg>