<svg width="14" height="14" viewBox="0 0 14 14" xmlns="http://www.w3.org/2000/svg">
<path fill-rule="evenodd" clip-rule="evenodd" d="M10.5 2.3335C10.3266 2.3335 10.1603 2.4024 10.0376 2.52504L2.85992 9.70273L2.55183 10.9356L3.78473 10.6275L10.9624 3.44984C11.0851 3.32721 11.154 3.16088 11.154 2.98744C11.154 2.81401 11.0851 2.64767 10.9624 2.52504C10.8398 2.4024 10.6735 2.3335 10.5 2.3335ZM9.21242 1.69984C9.55391 1.35835 10.0171 1.1665 10.5 1.1665C10.983 1.1665 11.4461 1.35835 11.7876 1.69984C12.1291 2.04134 12.321 2.5045 12.321 2.98744C12.321 3.47038 12.1291 3.93355 11.7876 4.27504L4.49561 11.567C4.42082 11.6418 4.3271 11.6949 4.22448 11.7205L1.89148 12.3035C1.69265 12.3532 1.48233 12.295 1.33742 12.15C1.1925 12.0051 1.13424 11.7948 1.18392 11.596L1.76692 9.26298C1.79257 9.16036 1.84562 9.06664 1.92042 8.99184L9.21242 1.69984ZM6.41652 11.7384C6.41652 11.4162 6.67776 11.1549 7.00002 11.1549H12.25C12.5723 11.1549 12.8335 11.4162 12.8335 11.7384C12.8335 12.0607 12.5723 12.3219 12.25 12.3219H7.00002C6.67776 12.3219 6.41652 12.0607 6.41652 11.7384Z"/>
</svg>