<svg width="24" height="24" viewBox="0 0 24 24" xmlns="http://www.w3.org/2000/svg"><path d="M23.5453 9.04775C23.7281 8.90244 24 9.03838 24 9.26807V18.854C24 20.0962 22.9922 21.104 21.75 21.104H2.25C1.00781 21.104 0 20.0962 0 18.854V9.27275C0 9.03838 0.267187 8.90713 0.454687 9.05244C1.50469 9.86807 2.89688 10.904 7.67813 14.3774C8.66719 15.0993 10.3359 16.6181 12 16.6087C13.6734 16.6228 15.375 15.0712 16.3266 14.3774C21.1078 10.904 22.4953 9.86338 23.5453 9.04775ZM12 15.104C13.0875 15.1228 14.6531 13.7353 15.4406 13.1634C21.6609 8.64932 22.1344 8.25557 23.5687 7.13057C23.8406 6.91963 24 6.5915 24 6.24463V5.354C24 4.11182 22.9922 3.104 21.75 3.104H2.25C1.00781 3.104 0 4.11182 0 5.354V6.24463C0 6.5915 0.159375 6.91494 0.43125 7.13057C1.86563 8.25088 2.33906 8.64932 8.55938 13.1634C9.34688 13.7353 10.9125 15.1228 12 15.104Z"/></svg>