<svg width="24" height="24" viewBox="0 0 24 24" xmlns="http://www.w3.org/2000/svg"><path d="M23.7663 12.2764C23.7663 11.4607 23.7001 10.6406 23.559 9.83806H12.2402V14.459H18.722C18.453 15.9494 17.5888 17.2678 16.3233 18.1056V21.1039H20.1903C22.4611 19.0139 23.7663 15.9273 23.7663 12.2764Z" fill="#4285F4"/><path d="M12.2399 24.0008C15.4764 24.0008 18.2058 22.9382 20.1944 21.1039L16.3274 18.1055C15.2515 18.8375 13.8626 19.252 12.2443 19.252C9.11372 19.252 6.4593 17.1399 5.50688 14.3003H1.51643V17.3912C3.55355 21.4434 7.70273 24.0008 12.2399 24.0008V24.0008Z" fill="#34A853"/><path d="M5.50277 14.3003C5.00011 12.8099 5.00011 11.1961 5.50277 9.70577V6.61482H1.51674C-0.185266 10.0056 -0.185266 14.0005 1.51674 17.3912L5.50277 14.3003V14.3003Z" fill="#FBBC04"/><path d="M12.2399 4.74966C13.9508 4.7232 15.6043 5.36697 16.8433 6.54867L20.2693 3.12262C18.0999 1.0855 15.2206 -0.034466 12.2399 0.000808666C7.70273 0.000808666 3.55355 2.55822 1.51643 6.61481L5.50247 9.70575C6.45048 6.86173 9.10931 4.74966 12.2399 4.74966V4.74966Z" fill="#EA4335"/></svg>