<svg width="24" height="24" viewBox="0 0 24 24" xmlns="http://www.w3.org/2000/svg"><path fill-rule="evenodd" clip-rule="evenodd" d="M1.41421 12.3137C1.41421 11.7614 1.86193 11.3137 2.41421 11.3137L11.3137 11.3137L11.3137 2.41422C11.3137 1.86193 11.7614 1.41422 12.3137 1.41421C12.866 1.41421 13.3137 1.86193 13.3137 2.41421L13.3137 11.3137L22.2132 11.3137C22.7655 11.3137 23.2132 11.7614 23.2132 12.3137C23.2132 12.866 22.7655 13.3137 22.2132 13.3137L13.3137 13.3137L13.3137 22.2132C13.3137 22.7655 12.866 23.2132 12.3137 23.2132C11.7614 23.2132 11.3137 22.7655 11.3137 22.2132L11.3137 13.3137L2.41421 13.3137C1.86193 13.3137 1.41421 12.866 1.41421 12.3137Z"/></svg>