<svg width="24" height="24" viewBox="0 0 24 24" xmlns="http://www.w3.org/2000/svg"><path d="M18.5171 18.5487C16.7716 20.2926 14.4533 21.2533 11.9863 21.2533C6.89789 21.2533 2.75733 17.1152 2.7525 12.0284L4.63556 13.9139C4.76038 14.0379 4.96121 14.0379 5.08589 13.9139C5.20909 13.7891 5.20909 13.5876 5.08589 13.4635L2.58948 10.9661L0.0936102 13.4635C-0.0312034 13.5876 -0.0312034 13.7892 0.0936102 13.9139C0.155146 13.9762 0.236791 14.0066 0.317631 14.0066C0.40008 14.0066 0.481591 13.9754 0.542456 13.9139L2.1279 12.3276C2.29347 17.6273 6.64438 21.8901 11.9832 21.8901C14.6207 21.8901 17.0996 20.8631 18.9651 18.9984C19.0891 18.8744 19.0891 18.6727 18.9651 18.5489C18.8443 18.4239 18.6419 18.4239 18.5171 18.5487Z"/><path d="M23.9064 10.0862C23.7832 9.96219 23.5815 9.96219 23.4568 10.0862L21.8729 11.6716C21.7057 6.37195 17.3548 2.10992 12.0168 2.10992C9.37771 2.10992 6.89954 3.13699 5.03404 5.00168C4.90923 5.12569 4.90923 5.32733 5.03404 5.4512C5.15724 5.57601 5.35968 5.57601 5.48356 5.4512C7.22827 3.7073 9.5473 2.74659 12.0143 2.74659C17.1019 2.74659 21.2433 6.88394 21.2498 11.9715L19.3651 10.0861C19.2411 9.96205 19.0394 9.96205 18.9148 10.0861C18.7916 10.2109 18.7916 10.4124 18.9148 10.5364L21.4114 13.0331L23.9073 10.5364C24.0312 10.4125 24.0312 10.2109 23.9064 10.0862Z"/></svg>