<svg width="48" height="48" viewBox="0 0 48 48" fill="none" xmlns="http://www.w3.org/2000/svg">
<g clip-path="url(#clip0_2045_2242)">
<path fill-rule="evenodd" clip-rule="evenodd" d="M4.92285 6.76911C4.92285 3.03057 7.95355 -0.00012207 11.6921 -0.00012207H31.3519C32.7397 -0.00012207 34.0424 0.668358 34.8515 1.79569L42.2686 12.129C42.7941 12.8611 43.0767 13.7396 43.0767 14.6409V41.2306C43.0767 44.9692 40.046 47.9999 36.3075 47.9999H11.6921C7.95355 47.9999 4.92285 44.9692 4.92285 41.2306V6.76911ZM11.6921 3.69219C9.99273 3.69219 8.61516 5.06976 8.61516 6.76911V41.2306C8.61516 42.9301 9.99273 44.3076 11.6921 44.3076H36.3075C38.0069 44.3076 39.3844 42.9301 39.3844 41.2306V16.3618H31.3844C30.3648 16.3618 29.5382 15.5353 29.5382 14.5157V3.69219H11.6921Z" fill="#9A9A9A"/>
<path d="M31.5956 26.9993C30.9585 27.7956 29.7969 27.9246 29.0006 27.2878L25.8464 24.7642V33.2307C25.8464 34.2503 25.0198 35.0768 24.0002 35.0768C22.9804 35.0768 22.1541 34.2503 22.1541 33.2307V24.764L18.9995 27.2878C18.2033 27.9246 17.0415 27.7956 16.4046 26.9993C15.7677 26.2032 15.8968 25.0414 16.6929 24.4044L22.8401 19.4867C23.1535 19.2334 23.5513 19.0805 23.9845 19.0768C23.9897 19.0768 23.9948 19.0768 24.0002 19.0768H24.0061C24.447 19.0783 24.8514 19.2341 25.1682 19.4933L31.3071 24.4044C32.1034 25.0414 32.2324 26.2032 31.5956 26.9993Z" fill="#9A9A9A"/>
</g>
<defs>
<clipPath id="clip0_2045_2242">
<rect width="48" height="48" fill="white"/>
</clipPath>
</defs>
</svg>
