<svg width="48" height="48" viewBox="0 0 48 48" fill="none" xmlns="http://www.w3.org/2000/svg">
<g clip-path="url(#clip0_2045_2259)">
<path d="M47.0432 12.371C46.7719 11.3498 46.237 10.4178 45.4923 9.66831C44.7476 8.91879 43.819 8.37801 42.7996 8.10009C39.0469 7.091 24.0469 7.091 24.0469 7.091C24.0469 7.091 9.04688 7.091 5.29415 8.10009C4.27474 8.37801 3.34619 8.91879 2.60145 9.66831C1.85671 10.4178 1.32189 11.3498 1.05051 12.371C0.0468751 16.1401 0.046875 24.0001 0.046875 24.0001C0.046875 24.0001 0.0468751 31.8601 1.05051 35.6292C1.32189 36.6504 1.85671 37.5823 2.60145 38.3319C3.34619 39.0814 4.27474 39.6222 5.29415 39.9001C9.04688 40.9092 24.0469 40.9092 24.0469 40.9092C24.0469 40.9092 39.0469 40.9092 42.7996 39.9001C43.819 39.6222 44.7476 39.0814 45.4923 38.3319C46.237 37.5823 46.7719 36.6504 47.0432 35.6292C48.0469 31.8601 48.0469 24.0001 48.0469 24.0001C48.0469 24.0001 48.0469 16.1401 47.0432 12.371Z" fill="#FF0302"/>
<path d="M19.1387 31.1373V16.8628L31.6841 24.0001L19.1387 31.1373Z" fill="#FEFEFE"/>
</g>
<defs>
<clipPath id="clip0_2045_2259">
<rect width="48" height="48" fill="white"/>
</clipPath>
</defs>
</svg>
