<svg width="20" height="16" viewBox="0 0 20 16" fill="none" xmlns="http://www.w3.org/2000/svg"><path d="M16.7705 6.02816C16.6759 5.74317 16.4117 5.54154 16.1008 5.54154H10.7305L9.07125 0.434807C8.9541 0.176288 8.69839 0 8.40214 0C8.10589 0 7.84962 0.176288 7.73472 0.430301L7.73303 0.434807L6.07378 5.54154H0.704027C0.315404 5.54154 0 5.85694 0 6.24556C0 6.47874 0.113771 6.686 0.28837 6.81386L0.290622 6.81498L4.63475 9.97071L2.9755 15.078C2.95353 15.1433 2.94114 15.2182 2.94114 15.296C2.94114 15.6846 3.25655 16 3.64517 16C3.80062 16 3.94424 15.9499 4.06083 15.8643L4.05857 15.8654L8.40327 12.7085L12.7474 15.8654C12.8617 15.9493 13.0054 15.9994 13.1608 15.9994C13.55 15.9994 13.8654 15.684 13.8654 15.2948C13.8654 15.2171 13.853 15.1422 13.8293 15.0724L13.831 15.0774L12.1712 9.97128L16.5165 6.81498C16.6933 6.68488 16.8065 6.47818 16.8065 6.24444C16.8065 6.16728 16.7941 6.09237 16.7711 6.02309L16.7727 6.02816H16.7705Z" fill="#0057FF"/></svg>