<svg width="24" height="24" viewBox="0 0 24 24" xmlns="http://www.w3.org/2000/svg"><path d="M12 24C18.6277 24 24 18.6277 24 12C24 5.37231 18.6277 0 12 0C5.37231 0 0 5.37231 0 12C0 18.6277 5.37231 24 12 24Z" fill="#FC3F1D"/><path d="M15.8308 18.72H13.4492V6.9397H12.3886C10.4492 6.9397 9.42924 7.92001 9.42924 9.37016C9.42924 11.0197 10.1391 11.7794 11.5892 12.7597L12.7892 13.56L9.33877 18.72H6.76985L9.86954 14.1139C8.08616 12.8455 7.09016 11.5957 7.09016 9.51047C7.09016 6.8797 8.90954 5.10001 12.3794 5.10001H15.8299L15.8308 18.72Z" fill="white"/></svg>